<svg width="44" height="27" viewBox="0 0 44 27" fill="none" xmlns="http://www.w3.org/2000/svg">
<rect x="0.5" y="0.5" width="43" height="26" rx="9.5" fill="white"/>
<rect x="0.5" y="0.5" width="43" height="26" rx="9.5" stroke="#71B1A1"/>
<path d="M15.181 9.333V10.147H11.848V12.732H14.554V13.546H11.848V17H10.847V9.333H15.181ZM17.391 11.951C17.567 11.6063 17.8163 11.3387 18.139 11.148C18.469 10.9573 18.8686 10.862 19.338 10.862V11.896H19.074C17.952 11.896 17.391 12.5047 17.391 13.722V17H16.39V10.972H17.391V11.951ZM25.8395 10.972V17H24.8385V16.109C24.6478 16.417 24.3802 16.659 24.0355 16.835C23.6982 17.0037 23.3242 17.088 22.9135 17.088C22.4442 17.088 22.0225 16.9927 21.6485 16.802C21.2745 16.604 20.9775 16.3107 20.7575 15.922C20.5448 15.5333 20.4385 15.0603 20.4385 14.503V10.972H21.4285V14.371C21.4285 14.965 21.5788 15.4233 21.8795 15.746C22.1802 16.0613 22.5908 16.219 23.1115 16.219C23.6468 16.219 24.0685 16.054 24.3765 15.724C24.6845 15.394 24.8385 14.9137 24.8385 14.283V10.972H25.8395ZM28.0466 9.993C27.856 9.993 27.6946 9.927 27.5626 9.795C27.4306 9.663 27.3646 9.50167 27.3646 9.311C27.3646 9.12033 27.4306 8.959 27.5626 8.827C27.6946 8.695 27.856 8.629 28.0466 8.629C28.23 8.629 28.384 8.695 28.5086 8.827C28.6406 8.959 28.7066 9.12033 28.7066 9.311C28.7066 9.50167 28.6406 9.663 28.5086 9.795C28.384 9.927 28.23 9.993 28.0466 9.993ZM28.5306 10.972V17H27.5296V10.972H28.5306ZM31.4576 11.797V15.35C31.4576 15.6433 31.52 15.8523 31.6446 15.977C31.7693 16.0943 31.9856 16.153 32.2936 16.153H33.0306V17H32.1286C31.5713 17 31.1533 16.8717 30.8746 16.615C30.596 16.3583 30.4566 15.9367 30.4566 15.35V11.797H29.6756V10.972H30.4566V9.454H31.4576V10.972H33.0306V11.797H31.4576Z" fill="#71B1A1"/>
</svg>
