<svg width="18" height="17" viewBox="0 0 18 17" fill="none" xmlns="http://www.w3.org/2000/svg">
<path d="M8.60538 0.501475C11.9585 0.50164 14.6926 3.23534 14.6926 6.59948V8.47512C14.6926 8.7784 14.7601 9.14566 14.8532 9.47904C14.946 9.81081 15.0787 10.1579 15.2362 10.4174V10.4183L16.3694 12.3038C16.7032 12.8669 16.766 13.5289 16.5408 14.1343C16.3411 14.6622 15.9491 15.0895 15.4331 15.3302L15.2049 15.4213C14.1458 15.7743 13.0595 16.0477 11.9658 16.2235L11.9551 16.2254C11.8412 16.2462 11.7532 16.2619 11.6691 16.2695L11.6505 16.2715L11.6319 16.2744L11.1177 16.341L11.1049 16.343C10.8985 16.3711 10.6798 16.3903 10.4467 16.4106H10.4418C9.83662 16.4691 9.22116 16.4987 8.60538 16.4987C7.97907 16.4987 7.35236 16.4692 6.73661 16.4106L6.72681 16.4096L6.34679 16.3743C6.22162 16.36 6.09773 16.3425 5.97362 16.3234L5.96383 16.3224L5.52699 16.2627H5.52601C5.46519 16.2521 5.40672 16.2438 5.35853 16.2372L5.21455 16.2157L5.20965 16.2147L4.39476 16.0619C3.58434 15.8948 2.78576 15.6852 1.99414 15.4213L1.99023 15.4194L1.74928 15.3273C1.20718 15.0837 0.808795 14.6558 0.620967 14.148L0.619987 14.1461L0.554364 13.9306C0.431434 13.4171 0.522563 12.8319 0.842321 12.2891L1.97456 10.4085L1.97749 10.4036C2.1281 10.1463 2.25714 9.79891 2.3487 9.46631C2.44005 9.1344 2.50731 8.76822 2.50737 8.46532V6.59948C2.50737 3.23735 5.23979 0.511326 8.60538 0.501475ZM8.57502 3.60043C7.87695 3.60043 7.31175 4.1659 7.31154 4.86391V7.97364C7.31164 8.67175 7.87689 9.23712 8.57502 9.23712C9.27313 9.23711 9.83839 8.67174 9.8385 7.97364V4.86391C9.83829 4.16591 9.27307 3.60045 8.57502 3.60043Z" fill="#DBEBE7" stroke="#129575"/>
</svg>
