<svg width="22" height="12" viewBox="0 0 22 12" fill="none" xmlns="http://www.w3.org/2000/svg">
<path d="M3.58944 0L18.4106 0C19.6587 0 20.1113 0.129956 20.5676 0.373986C21.0239 0.618016 21.382 0.97612 21.626 1.43242C21.87 1.88871 22 2.34131 22 3.58944V7.91056C22 9.15869 21.87 9.61129 21.626 10.0676C21.382 10.5239 21.0239 10.882 20.5676 11.126C20.1113 11.37 19.6587 11.5 18.4106 11.5H3.58944C2.34131 11.5 1.88871 11.37 1.43242 11.126C0.97612 10.882 0.618016 10.5239 0.373986 10.0676C0.129956 9.61129 0 9.15869 0 7.91056L0 3.58944C0 2.34131 0.129956 1.88871 0.373986 1.43242C0.618016 0.97612 0.97612 0.618016 1.43242 0.373986C1.88871 0.129956 2.34131 0 3.58944 0Z" fill="black" fill-opacity="0.36"/>
</svg>
