<svg width="18" height="17" viewBox="0 0 18 17" fill="none" xmlns="http://www.w3.org/2000/svg">
<path d="M16.7992 12.0455L15.6659 10.1599C15.4152 9.7487 15.1945 8.95637 15.1945 8.47495V6.59943C15.1945 2.95871 12.2358 0 8.60511 0C4.96439 0.0100295 2.00568 2.95871 2.00568 6.59943V8.46492C2.00568 8.94634 1.78503 9.73867 1.54432 10.1499L0.410983 12.0354C-0.0202867 12.7676 -0.120582 13.6 0.150215 14.3222C0.421013 15.0543 1.03281 15.636 1.83518 15.8968C2.91836 16.2579 4.01158 16.5186 5.12486 16.7092C5.23519 16.7293 5.34551 16.7393 5.45584 16.7593C5.59625 16.7794 5.74669 16.7995 5.89713 16.8195C6.1579 16.8596 6.41867 16.8897 6.68947 16.9098C7.32133 16.97 7.96322 17 8.60511 17C9.23697 17 9.86883 16.97 10.4907 16.9098C10.7213 16.8897 10.952 16.8697 11.1727 16.8396C11.3532 16.8195 11.5337 16.7995 11.7143 16.7694C11.8246 16.7593 11.9349 16.7393 12.0452 16.7192C13.1685 16.5387 14.2818 16.2579 15.365 15.8968C16.1373 15.636 16.729 15.0543 17.0098 14.3121C17.2907 13.5599 17.2104 12.7375 16.7992 12.0455ZM9.33726 7.97347C9.33726 8.39471 8.99626 8.73572 8.57502 8.73572C8.15378 8.73572 7.81277 8.39471 7.81277 7.97347V4.86432C7.81277 4.44308 8.15378 4.10208 8.57502 4.10208C8.99626 4.10208 9.33726 4.44308 9.33726 4.86432V7.97347Z" fill="#797979"/>
</svg>
