<svg width="16" height="16" viewBox="0 0 16 16" fill="none" xmlns="http://www.w3.org/2000/svg">
<path d="M13.6665 6.79337H11.7398C10.1598 6.79337 8.87317 5.50671 8.87317 3.92671V2.00004C8.87317 1.63337 8.57317 1.33337 8.2065 1.33337H5.37984C3.3265 1.33337 1.6665 2.66671 1.6665 5.04671V10.9534C1.6665 13.3334 3.3265 14.6667 5.37984 14.6667H10.6198C12.6732 14.6667 14.3332 13.3334 14.3332 10.9534V7.46004C14.3332 7.09337 14.0332 6.79337 13.6665 6.79337ZM8.31984 10.4667C7.97317 11.58 6.75317 12.18 6.33317 12.18C5.9065 12.18 4.71317 11.6 4.3465 10.4667C4.1065 9.72671 4.37984 8.76004 5.2265 8.48671C5.61317 8.36004 6.0265 8.43337 6.3265 8.66671C6.6265 8.43337 7.03984 8.36004 7.43317 8.48671C8.2865 8.76004 8.55317 9.72671 8.31984 10.4667Z" fill="#FF9C00"/>
<path d="M11.62 5.87329C12.2533 5.87996 13.1333 5.87995 13.8866 5.87995C14.2666 5.87995 14.4666 5.43329 14.2 5.16662C13.24 4.19995 11.52 2.45995 10.5333 1.47329C10.26 1.19995 9.78662 1.38662 9.78662 1.76662V4.09329C9.78662 5.06662 10.6133 5.87329 11.62 5.87329Z" fill="#FF9C00"/>
</svg>
