<svg width="15" height="10" viewBox="0 0 15 10" fill="none" xmlns="http://www.w3.org/2000/svg">
<path d="M7.51352 0.532667C9.38977 0.53271 11.236 1.00854 12.6165 1.92884C13.7713 2.69867 14.3802 3.68377 14.459 4.70558L14.4673 4.91053C14.4657 5.94005 13.9233 6.93938 12.8381 7.74657L12.6144 7.9047C11.2286 8.83506 9.37795 9.31647 7.5 9.31648C5.62187 9.31648 3.7704 8.83522 2.38452 7.9047L2.38348 7.90366C1.14884 7.08055 0.532668 6.01567 0.532667 4.92717C0.532667 3.83797 1.14959 2.76235 2.39492 1.92884L2.39388 1.9278C3.78571 1.00722 5.63817 0.532667 7.51352 0.532667Z" fill="#DBEBE7" stroke="#129575"/>
</svg>
