<svg width="17" height="17" viewBox="0 0 17 17" fill="none" xmlns="http://www.w3.org/2000/svg">
<path d="M8.50016 16.1146C4.7885 16.1146 1.771 13.0971 1.771 9.38542C1.771 5.67375 4.7885 2.65625 8.50016 2.65625C12.2118 2.65625 15.2293 5.67375 15.2293 9.38542C15.2293 13.0971 12.2118 16.1146 8.50016 16.1146ZM8.50016 3.71875C5.37641 3.71875 2.8335 6.26167 2.8335 9.38542C2.8335 12.5092 5.37641 15.0521 8.50016 15.0521C11.6239 15.0521 14.1668 12.5092 14.1668 9.38542C14.1668 6.26167 11.6239 3.71875 8.50016 3.71875Z" fill="#D9D9D9"/>
<path d="M8.5 9.7396C8.20958 9.7396 7.96875 9.49877 7.96875 9.20835V5.66669C7.96875 5.37627 8.20958 5.13544 8.5 5.13544C8.79042 5.13544 9.03125 5.37627 9.03125 5.66669V9.20835C9.03125 9.49877 8.79042 9.7396 8.5 9.7396Z" fill="#D9D9D9"/>
<path d="M10.625 1.94794H6.375C6.08458 1.94794 5.84375 1.7071 5.84375 1.41669C5.84375 1.12627 6.08458 0.885437 6.375 0.885437H10.625C10.9154 0.885437 11.1562 1.12627 11.1562 1.41669C11.1562 1.7071 10.9154 1.94794 10.625 1.94794Z" fill="#D9D9D9"/>
</svg>
