<svg width="28" height="28" viewBox="0 0 28 28" fill="none" xmlns="http://www.w3.org/2000/svg">
<path d="M0 14C0 10.2774 0 8.41616 0.489435 6.90983C1.47861 3.86545 3.86545 1.47861 6.90983 0.489435C8.41616 0 10.2774 0 14 0C17.7226 0 19.5838 0 21.0902 0.489435C24.1346 1.47861 26.5214 3.86545 27.5106 6.90983C28 8.41616 28 10.2774 28 14C28 17.7226 28 19.5838 27.5106 21.0902C26.5214 24.1346 24.1346 26.5214 21.0902 27.5106C19.5838 28 17.7226 28 14 28C10.2774 28 8.41616 28 6.90983 27.5106C3.86545 26.5214 1.47861 24.1346 0.489435 21.0902C0 19.5838 0 17.7226 0 14Z" fill="#FFE1B3"/>
</svg>
