<svg width="17" height="17" viewBox="0 0 17 17" fill="none" xmlns="http://www.w3.org/2000/svg">
<path d="M14.6058 5.98546C13.862 2.71296 11.0074 1.23962 8.49995 1.23962C8.49995 1.23962 8.49995 1.23962 8.49286 1.23962C5.99245 1.23962 3.13078 2.70587 2.38703 5.97837C1.55828 9.63337 3.79661 12.7288 5.82245 14.6767C6.57328 15.3992 7.53661 15.7605 8.49995 15.7605C9.46328 15.7605 10.4266 15.3992 11.1704 14.6767C13.1962 12.7288 15.4345 9.64046 14.6058 5.98546ZM8.49995 9.53421C7.26745 9.53421 6.2687 8.53546 6.2687 7.30296C6.2687 6.07046 7.26745 5.07171 8.49995 5.07171C9.73245 5.07171 10.7312 6.07046 10.7312 7.30296C10.7312 8.53546 9.73245 9.53421 8.49995 9.53421Z" fill="#71B1A1"/>
</svg>
