<svg width="56" height="27" viewBox="0 0 56 27" fill="none" xmlns="http://www.w3.org/2000/svg">
<rect x="0.5" y="0.5" width="55" height="26" rx="9.5" fill="white"/>
<rect x="0.5" y="0.5" width="55" height="26" rx="9.5" stroke="#71B1A1"/>
<path d="M14.323 17.077C13.6117 17.077 12.9627 16.912 12.376 16.582C11.7893 16.2447 11.3237 15.779 10.979 15.185C10.6417 14.5837 10.473 13.909 10.473 13.161C10.473 12.413 10.6417 11.742 10.979 11.148C11.3237 10.5467 11.7893 10.081 12.376 9.751C12.9627 9.41367 13.6117 9.245 14.323 9.245C15.0417 9.245 15.6943 9.41367 16.281 9.751C16.8677 10.081 17.3297 10.543 17.667 11.137C18.0043 11.731 18.173 12.4057 18.173 13.161C18.173 13.9163 18.0043 14.591 17.667 15.185C17.3297 15.779 16.8677 16.2447 16.281 16.582C15.6943 16.912 15.0417 17.077 14.323 17.077ZM14.323 16.208C14.8583 16.208 15.3387 16.0833 15.764 15.834C16.1967 15.5847 16.534 15.229 16.776 14.767C17.0253 14.305 17.15 13.7697 17.15 13.161C17.15 12.545 17.0253 12.0097 16.776 11.555C16.534 11.093 16.2003 10.7373 15.775 10.488C15.3497 10.2387 14.8657 10.114 14.323 10.114C13.7803 10.114 13.2963 10.2387 12.871 10.488C12.4457 10.7373 12.1083 11.093 11.859 11.555C11.617 12.0097 11.496 12.545 11.496 13.161C11.496 13.7697 11.617 14.305 11.859 14.767C12.1083 15.229 12.4457 15.5847 12.871 15.834C13.3037 16.0833 13.7877 16.208 14.323 16.208ZM20.4955 8.86V17H19.4945V8.86H20.4955ZM21.8275 13.964C21.8275 13.348 21.9522 12.809 22.2015 12.347C22.4508 11.8777 22.7918 11.5147 23.2245 11.258C23.6645 11.0013 24.1558 10.873 24.6985 10.873C25.1678 10.873 25.6042 10.983 26.0075 11.203C26.4108 11.4157 26.7188 11.698 26.9315 12.05V8.86H27.9435V17H26.9315V15.867C26.7335 16.2263 26.4402 16.5233 26.0515 16.758C25.6628 16.9853 25.2082 17.099 24.6875 17.099C24.1522 17.099 23.6645 16.967 23.2245 16.703C22.7918 16.439 22.4508 16.0687 22.2015 15.592C21.9522 15.1153 21.8275 14.5727 21.8275 13.964ZM26.9315 13.975C26.9315 13.5203 26.8398 13.1243 26.6565 12.787C26.4732 12.4497 26.2238 12.193 25.9085 12.017C25.6005 11.8337 25.2595 11.742 24.8855 11.742C24.5115 11.742 24.1705 11.83 23.8625 12.006C23.5545 12.182 23.3088 12.4387 23.1255 12.776C22.9422 13.1133 22.8505 13.5093 22.8505 13.964C22.8505 14.426 22.9422 14.8293 23.1255 15.174C23.3088 15.5113 23.5545 15.7717 23.8625 15.955C24.1705 16.131 24.5115 16.219 24.8855 16.219C25.2595 16.219 25.6005 16.131 25.9085 15.955C26.2238 15.7717 26.4732 15.5113 26.6565 15.174C26.8398 14.8293 26.9315 14.4297 26.9315 13.975ZM35.1351 13.755C35.1351 13.9457 35.1241 14.1473 35.1021 14.36H30.2841C30.3208 14.954 30.5224 15.4197 30.8891 15.757C31.2631 16.087 31.7141 16.252 32.2421 16.252C32.6748 16.252 33.0341 16.153 33.3201 15.955C33.6134 15.7497 33.8188 15.4783 33.9361 15.141H35.0141C34.8528 15.7203 34.5301 16.1933 34.0461 16.56C33.5621 16.9193 32.9608 17.099 32.2421 17.099C31.6701 17.099 31.1568 16.9707 30.7021 16.714C30.2548 16.4573 29.9028 16.0943 29.6461 15.625C29.3894 15.1483 29.2611 14.5983 29.2611 13.975C29.2611 13.3517 29.3858 12.8053 29.6351 12.336C29.8844 11.8667 30.2328 11.5073 30.6801 11.258C31.1348 11.0013 31.6554 10.873 32.2421 10.873C32.8141 10.873 33.3201 10.9977 33.7601 11.247C34.2001 11.4963 34.5374 11.841 34.7721 12.281C35.0141 12.7137 35.1351 13.205 35.1351 13.755ZM34.1011 13.546C34.1011 13.1647 34.0168 12.8383 33.8481 12.567C33.6794 12.2883 33.4484 12.0793 33.1551 11.94C32.8691 11.7933 32.5501 11.72 32.1981 11.72C31.6921 11.72 31.2594 11.8813 30.9001 12.204C30.5481 12.5267 30.3464 12.974 30.2951 13.546H34.1011ZM38.5904 17.099C38.1284 17.099 37.714 17.022 37.3474 16.868C36.9807 16.7067 36.691 16.4867 36.4784 16.208C36.2657 15.922 36.1484 15.5957 36.1264 15.229H37.1604C37.1897 15.5297 37.329 15.7753 37.5784 15.966C37.835 16.1567 38.1687 16.252 38.5794 16.252C38.9607 16.252 39.2614 16.1677 39.4814 15.999C39.7014 15.8303 39.8114 15.6177 39.8114 15.361C39.8114 15.097 39.694 14.9027 39.4594 14.778C39.2247 14.646 38.8617 14.5177 38.3704 14.393C37.923 14.2757 37.5564 14.1583 37.2704 14.041C36.9917 13.9163 36.7497 13.7367 36.5444 13.502C36.3464 13.26 36.2474 12.9447 36.2474 12.556C36.2474 12.248 36.339 11.9657 36.5224 11.709C36.7057 11.4523 36.966 11.2507 37.3034 11.104C37.6407 10.95 38.0257 10.873 38.4584 10.873C39.1257 10.873 39.6647 11.0417 40.0754 11.379C40.486 11.7163 40.706 12.1783 40.7354 12.765H39.7344C39.7124 12.4497 39.584 12.1967 39.3494 12.006C39.122 11.8153 38.814 11.72 38.4254 11.72C38.066 11.72 37.78 11.797 37.5674 11.951C37.3547 12.105 37.2484 12.3067 37.2484 12.556C37.2484 12.754 37.3107 12.919 37.4354 13.051C37.5674 13.1757 37.7287 13.2783 37.9194 13.359C38.1174 13.4323 38.3887 13.5167 38.7334 13.612C39.166 13.7293 39.518 13.8467 39.7894 13.964C40.0607 14.074 40.2917 14.2427 40.4824 14.47C40.6804 14.6973 40.783 14.9943 40.7904 15.361C40.7904 15.691 40.6987 15.988 40.5154 16.252C40.332 16.516 40.0717 16.725 39.7344 16.879C39.4044 17.0257 39.023 17.099 38.5904 17.099ZM43.4244 11.797V15.35C43.4244 15.6433 43.4868 15.8523 43.6114 15.977C43.7361 16.0943 43.9524 16.153 44.2604 16.153H44.9974V17H44.0954C43.5381 17 43.1201 16.8717 42.8414 16.615C42.5628 16.3583 42.4234 15.9367 42.4234 15.35V11.797H41.6424V10.972H42.4234V9.454H43.4244V10.972H44.9974V11.797H43.4244Z" fill="#71B1A1"/>
</svg>
