<svg width="20" height="20" viewBox="0 0 20 20" fill="none" xmlns="http://www.w3.org/2000/svg">
<path fill-rule="evenodd" clip-rule="evenodd" d="M10.7422 4.35666C10.5061 4.6094 10.5069 5.0183 10.7441 5.26996L14.5934 9.35412H3.93943L3.85719 9.36002C3.56137 9.40278 3.33337 9.67298 3.33337 9.99993C3.33337 10.3566 3.60471 10.6457 3.93943 10.6457H14.5922L10.744 14.7298L10.6852 14.8021C10.5087 15.0545 10.5275 15.4133 10.7423 15.6431C10.9784 15.8958 11.3622 15.8967 11.5993 15.645L16.474 10.4721C16.5874 10.3593 16.6601 10.2006 16.6661 10.0238C16.6723 9.85007 16.6129 9.67419 16.4881 9.54179L11.5993 4.35469L11.5312 4.29232C11.2936 4.10527 10.9569 4.12689 10.7422 4.35666Z" fill="white"/>
</svg>
