<svg width="24" height="24" viewBox="0 0 24 24" fill="none" xmlns="http://www.w3.org/2000/svg">
<path d="M12.0205 2.55005C15.3637 2.55021 18.0898 5.27588 18.0898 8.63013V10.5002C18.0899 10.8026 18.1571 11.1688 18.25 11.5012C18.3424 11.832 18.4748 12.1781 18.6318 12.4368V12.4377L19.7617 14.3176C20.0945 14.8791 20.1572 15.5392 19.9326 16.1428C19.7335 16.6691 19.3426 17.0952 18.8281 17.3352L18.6006 17.426C17.5447 17.7779 16.4616 18.0506 15.3711 18.2258L15.3604 18.2278C15.2468 18.2484 15.159 18.2641 15.0752 18.2717L15.0566 18.2737L15.0381 18.2766L14.5254 18.343L14.5127 18.345C14.3069 18.373 14.0888 18.3921 13.8564 18.4124H13.8516C13.2481 18.4707 12.6345 18.5002 12.0205 18.5002C11.396 18.5002 10.7712 18.4708 10.1572 18.4124L10.1475 18.4114L9.76855 18.3762C9.64376 18.362 9.52023 18.3445 9.39648 18.3254L9.38672 18.3245L8.95117 18.2649H8.9502C8.88955 18.2544 8.83125 18.2461 8.7832 18.2395L8.63965 18.218L8.63477 18.217L7.82227 18.0647C7.01423 17.8981 6.218 17.6891 5.42871 17.426L5.4248 17.4241L5.18457 17.3323C4.64406 17.0894 4.24685 16.6628 4.05957 16.1565L4.05859 16.1545L3.99316 15.9397C3.8706 15.4277 3.96146 14.8442 4.28027 14.303L5.40918 12.428L5.41211 12.4231C5.56227 12.1666 5.69093 11.8201 5.78223 11.4885C5.8733 11.1576 5.94037 10.7925 5.94043 10.4905V8.63013C5.94043 5.27788 8.66481 2.55987 12.0205 2.55005ZM11.9902 5.63989C11.2942 5.63989 10.7307 6.2037 10.7305 6.89966V10.0002C10.7306 10.6963 11.2942 11.26 11.9902 11.26C12.6863 11.26 13.2499 10.6963 13.25 10.0002V6.89966C13.2498 6.20371 12.6862 5.63991 11.9902 5.63989Z" fill="#DBEBE7" stroke="#129575"/>
<path d="M14.8302 20.01C14.4102 21.17 13.3002 22 12.0002 22C11.2102 22 10.4302 21.68 9.88018 21.11C9.56018 20.81 9.32018 20.41 9.18018 20C9.31018 20.02 9.44018 20.03 9.58018 20.05C9.81018 20.08 10.0502 20.11 10.2902 20.13C10.8602 20.18 11.4402 20.21 12.0202 20.21C12.5902 20.21 13.1602 20.18 13.7202 20.13C13.9302 20.11 14.1402 20.1 14.3402 20.07C14.5002 20.05 14.6602 20.03 14.8302 20.01Z" fill="#DBEBE7" stroke="#129575"/>
</svg>
