<svg width="16" height="16" viewBox="0 0 16 16" fill="none" xmlns="http://www.w3.org/2000/svg">
<path d="M10.5333 1.47329C10.26 1.19995 9.78662 1.38662 9.78662 1.76662V4.09329C9.78662 5.06662 10.6133 5.87329 11.62 5.87329C12.2533 5.87995 13.1333 5.87995 13.8866 5.87995C14.2666 5.87995 14.4666 5.43329 14.2 5.16662C13.24 4.19995 11.52 2.45995 10.5333 1.47329Z" fill="#FF9C00"/>
<path d="M13.6665 6.79337H11.7398C10.1598 6.79337 8.87317 5.50671 8.87317 3.92671V2.00004C8.87317 1.63337 8.57317 1.33337 8.2065 1.33337H5.37984C3.3265 1.33337 1.6665 2.66671 1.6665 5.04671V10.9534C1.6665 13.3334 3.3265 14.6667 5.37984 14.6667H10.6198C12.6732 14.6667 14.3332 13.3334 14.3332 10.9534V7.46004C14.3332 7.09337 14.0332 6.79337 13.6665 6.79337ZM7.6665 11.8334H4.99984C4.7265 11.8334 4.49984 11.6067 4.49984 11.3334C4.49984 11.06 4.7265 10.8334 4.99984 10.8334H7.6665C7.93984 10.8334 8.1665 11.06 8.1665 11.3334C8.1665 11.6067 7.93984 11.8334 7.6665 11.8334ZM8.99984 9.16671H4.99984C4.7265 9.16671 4.49984 8.94004 4.49984 8.66671C4.49984 8.39337 4.7265 8.16671 4.99984 8.16671H8.99984C9.27317 8.16671 9.49984 8.39337 9.49984 8.66671C9.49984 8.94004 9.27317 9.16671 8.99984 9.16671Z" fill="#FF9C00"/>
</svg>
