<svg width="64" height="27" viewBox="0 0 64 27" fill="none" xmlns="http://www.w3.org/2000/svg">
<rect x="0.5" y="0.5" width="63" height="26" rx="9.5" fill="white"/>
<rect x="0.5" y="0.5" width="63" height="26" rx="9.5" stroke="#71B1A1"/>
<path d="M13.278 17.077C12.772 17.077 12.3173 16.989 11.914 16.813C11.518 16.6297 11.2063 16.3803 10.979 16.065C10.7517 15.7423 10.6343 15.372 10.627 14.954H11.694C11.7307 15.3133 11.8773 15.6177 12.134 15.867C12.398 16.109 12.7793 16.23 13.278 16.23C13.7547 16.23 14.1287 16.1127 14.4 15.878C14.6787 15.636 14.818 15.328 14.818 14.954C14.818 14.6607 14.7373 14.4223 14.576 14.239C14.4147 14.0557 14.213 13.9163 13.971 13.821C13.729 13.7257 13.4027 13.623 12.992 13.513C12.486 13.381 12.079 13.249 11.771 13.117C11.4703 12.985 11.21 12.7797 10.99 12.501C10.7773 12.215 10.671 11.8337 10.671 11.357C10.671 10.939 10.7773 10.5687 10.99 10.246C11.2027 9.92333 11.4997 9.674 11.881 9.498C12.2697 9.322 12.7133 9.234 13.212 9.234C13.9307 9.234 14.5173 9.41367 14.972 9.773C15.434 10.1323 15.6943 10.609 15.753 11.203H14.653C14.6163 10.9097 14.4623 10.653 14.191 10.433C13.9197 10.2057 13.5603 10.092 13.113 10.092C12.695 10.092 12.354 10.202 12.09 10.422C11.826 10.6347 11.694 10.9353 11.694 11.324C11.694 11.6027 11.771 11.83 11.925 12.006C12.0863 12.182 12.2807 12.3177 12.508 12.413C12.7427 12.501 13.069 12.6037 13.487 12.721C13.993 12.8603 14.4 12.9997 14.708 13.139C15.016 13.271 15.28 13.48 15.5 13.766C15.72 14.0447 15.83 14.426 15.83 14.91C15.83 15.284 15.731 15.636 15.533 15.966C15.335 16.296 15.0417 16.5637 14.653 16.769C14.2643 16.9743 13.806 17.077 13.278 17.077ZM18.3041 12.083C18.5021 11.7383 18.7954 11.4523 19.1841 11.225C19.5801 10.9903 20.0384 10.873 20.5591 10.873C21.0944 10.873 21.5784 11.0013 22.0111 11.258C22.4511 11.5147 22.7957 11.8777 23.0451 12.347C23.2944 12.809 23.4191 13.348 23.4191 13.964C23.4191 14.5727 23.2944 15.1153 23.0451 15.592C22.7957 16.0687 22.4511 16.439 22.0111 16.703C21.5784 16.967 21.0944 17.099 20.5591 17.099C20.0457 17.099 19.5911 16.9853 19.1951 16.758C18.8064 16.5233 18.5094 16.2337 18.3041 15.889V19.86H17.3031V10.972H18.3041V12.083ZM22.3961 13.964C22.3961 13.5093 22.3044 13.1133 22.1211 12.776C21.9377 12.4387 21.6884 12.182 21.3731 12.006C21.0651 11.83 20.7241 11.742 20.3501 11.742C19.9834 11.742 19.6424 11.8337 19.3271 12.017C19.0191 12.193 18.7697 12.4533 18.5791 12.798C18.3957 13.1353 18.3041 13.5277 18.3041 13.975C18.3041 14.4297 18.3957 14.8293 18.5791 15.174C18.7697 15.5113 19.0191 15.7717 19.3271 15.955C19.6424 16.131 19.9834 16.219 20.3501 16.219C20.7241 16.219 21.0651 16.131 21.3731 15.955C21.6884 15.7717 21.9377 15.5113 22.1211 15.174C22.3044 14.8293 22.3961 14.426 22.3961 13.964ZM24.3626 13.964C24.3626 13.348 24.4873 12.809 24.7366 12.347C24.986 11.8777 25.327 11.5147 25.7596 11.258C26.1996 11.0013 26.6873 10.873 27.2226 10.873C27.7506 10.873 28.209 10.9867 28.5976 11.214C28.9863 11.4413 29.276 11.7273 29.4666 12.072V10.972H30.4786V17H29.4666V15.878C29.2686 16.23 28.9716 16.5233 28.5756 16.758C28.187 16.9853 27.7323 17.099 27.2116 17.099C26.6763 17.099 26.1923 16.967 25.7596 16.703C25.327 16.439 24.986 16.0687 24.7366 15.592C24.4873 15.1153 24.3626 14.5727 24.3626 13.964ZM29.4666 13.975C29.4666 13.5203 29.375 13.1243 29.1916 12.787C29.0083 12.4497 28.759 12.193 28.4436 12.017C28.1356 11.8337 27.7946 11.742 27.4206 11.742C27.0466 11.742 26.7056 11.83 26.3976 12.006C26.0896 12.182 25.844 12.4387 25.6606 12.776C25.4773 13.1133 25.3856 13.5093 25.3856 13.964C25.3856 14.426 25.4773 14.8293 25.6606 15.174C25.844 15.5113 26.0896 15.7717 26.3976 15.955C26.7056 16.131 27.0466 16.219 27.4206 16.219C27.7946 16.219 28.1356 16.131 28.4436 15.955C28.759 15.7717 29.0083 15.5113 29.1916 15.174C29.375 14.8293 29.4666 14.4297 29.4666 13.975ZM35.1072 10.862C35.8406 10.862 36.4346 11.0857 36.8892 11.533C37.3439 11.973 37.5712 12.611 37.5712 13.447V17H36.5812V13.59C36.5812 12.9887 36.4309 12.5303 36.1302 12.215C35.8296 11.8923 35.4189 11.731 34.8982 11.731C34.3702 11.731 33.9486 11.896 33.6332 12.226C33.3252 12.556 33.1712 13.0363 33.1712 13.667V17H32.1702V10.972H33.1712V11.83C33.3692 11.522 33.6369 11.2837 33.9742 11.115C34.3189 10.9463 34.6966 10.862 35.1072 10.862ZM39.7234 9.993C39.5327 9.993 39.3714 9.927 39.2394 9.795C39.1074 9.663 39.0414 9.50167 39.0414 9.311C39.0414 9.12033 39.1074 8.959 39.2394 8.827C39.3714 8.695 39.5327 8.629 39.7234 8.629C39.9067 8.629 40.0607 8.695 40.1854 8.827C40.3174 8.959 40.3834 9.12033 40.3834 9.311C40.3834 9.50167 40.3174 9.663 40.1854 9.795C40.0607 9.927 39.9067 9.993 39.7234 9.993ZM40.2074 10.972V17H39.2064V10.972H40.2074ZM44.0474 17.099C43.5854 17.099 43.1711 17.022 42.8044 16.868C42.4377 16.7067 42.1481 16.4867 41.9354 16.208C41.7227 15.922 41.6054 15.5957 41.5834 15.229H42.6174C42.6467 15.5297 42.7861 15.7753 43.0354 15.966C43.2921 16.1567 43.6257 16.252 44.0364 16.252C44.4177 16.252 44.7184 16.1677 44.9384 15.999C45.1584 15.8303 45.2684 15.6177 45.2684 15.361C45.2684 15.097 45.1511 14.9027 44.9164 14.778C44.6817 14.646 44.3187 14.5177 43.8274 14.393C43.3801 14.2757 43.0134 14.1583 42.7274 14.041C42.4487 13.9163 42.2067 13.7367 42.0014 13.502C41.8034 13.26 41.7044 12.9447 41.7044 12.556C41.7044 12.248 41.7961 11.9657 41.9794 11.709C42.1627 11.4523 42.4231 11.2507 42.7604 11.104C43.0977 10.95 43.4827 10.873 43.9154 10.873C44.5827 10.873 45.1217 11.0417 45.5324 11.379C45.9431 11.7163 46.1631 12.1783 46.1924 12.765H45.1914C45.1694 12.4497 45.0411 12.1967 44.8064 12.006C44.5791 11.8153 44.2711 11.72 43.8824 11.72C43.5231 11.72 43.2371 11.797 43.0244 11.951C42.8117 12.105 42.7054 12.3067 42.7054 12.556C42.7054 12.754 42.7677 12.919 42.8924 13.051C43.0244 13.1757 43.1857 13.2783 43.3764 13.359C43.5744 13.4323 43.8457 13.5167 44.1904 13.612C44.6231 13.7293 44.9751 13.8467 45.2464 13.964C45.5177 14.074 45.7487 14.2427 45.9394 14.47C46.1374 14.6973 46.2401 14.9943 46.2474 15.361C46.2474 15.691 46.1557 15.988 45.9724 16.252C45.7891 16.516 45.5287 16.725 45.1914 16.879C44.8614 17.0257 44.4801 17.099 44.0474 17.099ZM50.6525 10.862C51.1071 10.862 51.5178 10.961 51.8845 11.159C52.2511 11.3497 52.5371 11.6393 52.7425 12.028C52.9551 12.4167 53.0615 12.8897 53.0615 13.447V17H52.0715V13.59C52.0715 12.9887 51.9211 12.5303 51.6205 12.215C51.3198 11.8923 50.9091 11.731 50.3885 11.731C49.8605 11.731 49.4388 11.896 49.1235 12.226C48.8155 12.556 48.6615 13.0363 48.6615 13.667V17H47.6605V8.86H48.6615V11.83C48.8595 11.522 49.1308 11.2837 49.4755 11.115C49.8275 10.9463 50.2198 10.862 50.6525 10.862Z" fill="#71B1A1"/>
</svg>
