<svg width="11" height="14" viewBox="0 0 11 14" fill="none" xmlns="http://www.w3.org/2000/svg">
<path fill-rule="evenodd" clip-rule="evenodd" d="M2.81607 0.185999C3.5383 0.0381932 4.42859 0 5.50002 0C6.57145 0 7.46175 0.0381932 8.18397 0.185999C8.91527 0.335662 9.51798 0.606235 9.9708 1.10229C10.4183 1.59249 10.6672 2.24636 10.8099 3.05709C10.9524 3.86638 10.9971 4.88246 10.9971 6.14141C10.9971 6.62729 10.9979 7.08349 10.9987 7.51141C11.0024 9.53514 11.0049 10.9264 10.9136 11.8338C10.8592 12.3752 10.7653 12.8348 10.5589 13.1648C10.4479 13.3423 10.3005 13.4894 10.109 13.5873C9.92102 13.6835 9.72252 13.716 9.53252 13.716C9.09844 13.716 8.67754 13.4772 8.3378 13.2411C8.00613 13.0107 7.657 12.7123 7.32683 12.4302C7.30066 12.4078 7.27461 12.3855 7.2487 12.3634C6.88411 12.0522 6.54168 11.7649 6.22033 11.5539C5.88699 11.3351 5.65268 11.2511 5.50002 11.2511C5.34737 11.2511 5.11305 11.3351 4.77972 11.5539C4.45837 11.7649 4.11593 12.0522 3.75135 12.3634C3.72543 12.3855 3.69937 12.4078 3.6732 12.4302C3.34304 12.7123 2.99392 13.0107 2.66225 13.2411C2.3225 13.4772 1.9016 13.716 1.46752 13.716C1.27752 13.716 1.07902 13.6835 0.891015 13.5873C0.699582 13.4894 0.552152 13.3423 0.441142 13.1648C0.23472 12.8348 0.140841 12.3752 0.0864 11.8338C-0.0048458 10.9264 -0.00233125 9.53514 0.00132637 7.51141C0.00209976 7.08349 0.00292427 6.62729 0.00292427 6.14141C0.00292427 4.88246 0.0476431 3.86638 0.190095 3.05709C0.332802 2.24636 0.581775 1.59249 1.02925 1.10229C1.48206 0.606235 2.08477 0.335662 2.81607 0.185999ZM1.17851 3.23108C1.05205 3.94947 1.00653 4.89235 1.00653 6.14141C1.00653 6.63913 1.00575 7.10271 1.00501 7.5344C1.00158 9.55884 0.999335 10.8818 1.08497 11.7334C1.13775 12.2583 1.21783 12.514 1.29204 12.6327C1.32135 12.6795 1.34091 12.6902 1.34812 12.6939C1.35876 12.6993 1.39057 12.7124 1.46752 12.7124C1.56703 12.7124 1.76419 12.643 2.08958 12.417C2.37805 12.2165 2.6901 11.95 3.03271 11.6573C3.05494 11.6384 3.07729 11.6193 3.09978 11.6001C3.45712 11.2951 3.84632 10.9662 4.22892 10.715C4.59953 10.4717 5.04148 10.2475 5.50002 10.2475C5.95857 10.2475 6.40051 10.4717 6.77113 10.715C7.15372 10.9662 7.54292 11.2951 7.90026 11.6001C7.92275 11.6193 7.9451 11.6384 7.96733 11.6573C8.30994 11.95 8.622 12.2165 8.91046 12.417C9.23586 12.643 9.43301 12.7124 9.53252 12.7124C9.60948 12.7124 9.64129 12.6993 9.65193 12.6939C9.65914 12.6902 9.6787 12.6795 9.708 12.6327C9.78221 12.514 9.86229 12.2583 9.91507 11.7334C10.0007 10.8818 9.99846 9.55884 9.99503 7.53439C9.9943 7.1027 9.99351 6.63912 9.99351 6.14141C9.99351 4.89235 9.94799 3.94947 9.82154 3.23108C9.69534 2.51413 9.49675 2.0716 9.22957 1.7789C8.96773 1.49206 8.5887 1.29324 7.98275 1.16923C7.36773 1.04336 6.56527 1.00361 5.50002 1.00361C4.43477 1.00361 3.63231 1.04336 3.01729 1.16923C2.41135 1.29324 2.03232 1.49206 1.77048 1.7789C1.5033 2.0716 1.30471 2.51413 1.17851 3.23108Z" fill="#130F26"/>
</svg>
