<svg width="18" height="17" viewBox="0 0 18 17" fill="none" xmlns="http://www.w3.org/2000/svg">
<path d="M8.60529 0.501469C11.9583 0.501635 14.6925 3.23531 14.6925 6.59941V8.47502C14.6925 8.77831 14.76 9.14556 14.8531 9.47894C14.9458 9.8107 15.0785 10.1578 15.236 10.4172V10.4182L16.3692 12.3036C16.703 12.8667 16.7659 13.5288 16.5406 14.1342C16.3409 14.662 15.9489 15.0894 15.4329 15.3301L15.2047 15.4212C14.1457 15.7741 13.0594 16.0475 11.9657 16.2233L11.9549 16.2253C11.841 16.246 11.753 16.2617 11.669 16.2693L11.6503 16.2713L11.6317 16.2742L11.1175 16.3408L11.1048 16.3428C10.8984 16.3709 10.6797 16.3901 10.4466 16.4104H10.4417C9.83652 16.4689 9.22106 16.4985 8.60529 16.4985C7.97898 16.4985 7.35228 16.469 6.73653 16.4104L6.72674 16.4094L6.34672 16.3741C6.22155 16.3598 6.09766 16.3423 5.97356 16.3232L5.96376 16.3222L5.52693 16.2625H5.52595C5.46513 16.2519 5.40666 16.2436 5.35847 16.237L5.2145 16.2155L5.2096 16.2145L4.39471 16.0617C3.5843 15.8947 2.78573 15.685 1.99412 15.4212L1.99021 15.4192L1.74927 15.3271C1.20717 15.0835 0.808786 14.6557 0.62096 14.1479L0.61998 14.1459L0.554358 13.9305C0.43143 13.4169 0.522557 12.8318 0.842311 12.2889L1.97453 10.4084L1.97747 10.4035C2.12808 10.1462 2.25711 9.7988 2.34868 9.46621C2.44002 9.13431 2.50728 8.76812 2.50735 8.46523V6.59941C2.50735 3.23731 5.23973 0.51132 8.60529 0.501469ZM8.57493 3.60039C7.87687 3.60039 7.31167 4.16585 7.31146 4.86386V7.97356C7.31157 8.67165 7.8768 9.23702 8.57493 9.23702C9.27303 9.23701 9.83829 8.67164 9.83839 7.97356V4.86386C9.83818 4.16586 9.27297 3.60041 8.57493 3.60039Z" fill="#DBEBE7" stroke="#129575"/>
</svg>
