<svg width="10" height="10" viewBox="0 0 10 10" fill="none" xmlns="http://www.w3.org/2000/svg">
<path d="M7.69534 9.37514C7.62957 9.3754 7.56539 9.3549 7.51195 9.31655L5.00003 7.49546L2.48812 9.31655C2.43445 9.35548 2.3698 9.37632 2.30351 9.37608C2.23721 9.37584 2.17271 9.35452 2.11933 9.31521C2.06595 9.2759 2.02645 9.22063 2.00655 9.15739C1.98665 9.09415 1.98738 9.02623 2.00863 8.96343L2.98831 6.06167L0.449252 4.32046C0.394254 4.28278 0.352745 4.22851 0.330789 4.16557C0.308834 4.10262 0.307582 4.03431 0.327218 3.9706C0.346853 3.90689 0.386347 3.85113 0.439928 3.81147C0.493509 3.77181 0.55837 3.75032 0.625033 3.75015H3.75746L4.70277 0.840966C4.72313 0.778158 4.76287 0.723414 4.81627 0.684587C4.86968 0.645761 4.93401 0.624847 5.00003 0.624847C5.06606 0.624847 5.13039 0.645761 5.1838 0.684587C5.2372 0.723414 5.27693 0.778158 5.2973 0.840966L6.24261 3.75112H9.37503C9.44178 3.75109 9.50678 3.77243 9.56052 3.81202C9.61427 3.8516 9.65392 3.90735 9.67368 3.97111C9.69344 4.03487 9.69227 4.10327 9.67033 4.16631C9.6484 4.22935 9.60686 4.28371 9.55179 4.32143L7.01175 6.06167L7.99085 8.96265C8.00672 9.00961 8.01118 9.05968 8.00387 9.10871C7.99656 9.15775 7.97769 9.20434 7.94882 9.24464C7.91995 9.28494 7.88191 9.31779 7.83784 9.34048C7.79376 9.36317 7.74492 9.37506 7.69534 9.37514Z" fill="#FFAD30"/>
</svg>
