<svg width="12" height="11" viewBox="0 0 12 11" fill="none" xmlns="http://www.w3.org/2000/svg">
<path d="M9.27891 10.9988C9.19623 10.9991 9.11556 10.9734 9.04838 10.9252L5.89099 8.63612L2.7336 10.9252C2.66615 10.9741 2.58488 11.0003 2.50155 11C2.41822 10.9997 2.33715 10.9729 2.27005 10.9235C2.20295 10.8741 2.15331 10.8046 2.12829 10.7251C2.10328 10.6456 2.10419 10.5602 2.1309 10.4813L3.36233 6.8339L0.170819 4.64526C0.101688 4.5979 0.0495126 4.52968 0.0219151 4.45056C-0.00568239 4.37144 -0.00725548 4.28557 0.0174257 4.2055C0.0421069 4.12542 0.0917489 4.05533 0.159099 4.00548C0.226448 3.95562 0.307976 3.92861 0.39177 3.92839H4.32912L5.51734 0.271653C5.54294 0.192706 5.59288 0.123894 5.66001 0.0750909C5.72714 0.0262874 5.808 0 5.89099 0C5.97399 0 6.05485 0.0262874 6.12198 0.0750909C6.18911 0.123894 6.23905 0.192706 6.26465 0.271653L7.45287 3.92962H11.3902C11.4741 3.92958 11.5558 3.9564 11.6234 4.00616C11.6909 4.05592 11.7408 4.126 11.7656 4.20614C11.7904 4.28627 11.789 4.37226 11.7614 4.4515C11.7338 4.53074 11.6816 4.59907 11.6124 4.64648L8.41966 6.8339L9.65035 10.4803C9.67029 10.5394 9.6759 10.6023 9.66672 10.6639C9.65753 10.7256 9.63381 10.7841 9.59752 10.8348C9.56124 10.8854 9.51342 10.9267 9.45802 10.9553C9.40261 10.9838 9.34122 10.9987 9.27891 10.9988Z" fill="#FFAD30"/>
</svg>
