<svg width="17" height="17" viewBox="0 0 17 17" fill="none" xmlns="http://www.w3.org/2000/svg">
<path d="M12.7499 0H4.24998C1.90399 0 0 1.89549 0 4.23298V9.31596V10.166C0 12.5034 1.90399 14.3989 4.24998 14.3989H5.52497C5.75447 14.3989 6.06047 14.5519 6.20497 14.7389L7.47996 16.4304C8.04096 17.1784 8.95895 17.1784 9.51995 16.4304L10.7949 14.7389C10.9564 14.5264 11.2114 14.3989 11.4749 14.3989H12.7499C15.0959 14.3989 16.9999 12.5034 16.9999 10.166V4.23298C16.9999 1.89549 15.0959 0 12.7499 0ZM5.09997 8.49996C4.62398 8.49996 4.24998 8.11746 4.24998 7.64996C4.24998 7.18247 4.63248 6.79997 5.09997 6.79997C5.56747 6.79997 5.94997 7.18247 5.94997 7.64996C5.94997 8.11746 5.57597 8.49996 5.09997 8.49996ZM8.49996 8.49996C8.02396 8.49996 7.64996 8.11746 7.64996 7.64996C7.64996 7.18247 8.03246 6.79997 8.49996 6.79997C8.96745 6.79997 9.34995 7.18247 9.34995 7.64996C9.34995 8.11746 8.97595 8.49996 8.49996 8.49996ZM11.8999 8.49996C11.4239 8.49996 11.0499 8.11746 11.0499 7.64996C11.0499 7.18247 11.4324 6.79997 11.8999 6.79997C12.3674 6.79997 12.7499 7.18247 12.7499 7.64996C12.7499 8.11746 12.3759 8.49996 11.8999 8.49996Z" fill="#121212"/>
</svg>
