<svg width="16" height="15" viewBox="0 0 16 15" fill="none" xmlns="http://www.w3.org/2000/svg">
<path d="M7.36206 0.360844C7.51844 -0.120462 8.19936 -0.120462 8.35575 0.360843L9.85282 4.96835C9.92276 5.1836 10.1233 5.32933 10.3497 5.32933H15.1943C15.7004 5.32933 15.9108 5.97692 15.5014 6.27439L11.582 9.12198C11.3989 9.25501 11.3223 9.49081 11.3922 9.70606L12.8893 14.3136C13.0456 14.7949 12.4948 15.1951 12.0854 14.8976L8.16597 12.05C7.98287 11.917 7.73494 11.917 7.55184 12.05L3.63246 14.8976C3.22303 15.1951 2.67216 14.7949 2.82854 14.3136L4.32561 9.70606C4.39555 9.49081 4.31894 9.25501 4.13584 9.12198L0.216456 6.27439C-0.192966 5.97692 0.0174489 5.32933 0.523523 5.32933H5.36814C5.59447 5.32933 5.79505 5.1836 5.86499 4.96835L7.36206 0.360844Z" fill="#71B1A1"/>
</svg>
