<svg width="53" height="27" viewBox="0 0 53 27" fill="none" xmlns="http://www.w3.org/2000/svg">
<rect x="0.5" y="0.5" width="52" height="26" rx="9.5" fill="white"/>
<rect x="0.5" y="0.5" width="52" height="26" rx="9.5" stroke="#71B1A1"/>
<path d="M11.848 16.186H14.532V17H10.847V9.333H11.848V16.186ZM20.941 10.972V17H19.94V16.109C19.7494 16.417 19.4817 16.659 19.137 16.835C18.7997 17.0037 18.4257 17.088 18.015 17.088C17.5457 17.088 17.124 16.9927 16.75 16.802C16.376 16.604 16.079 16.3107 15.859 15.922C15.6464 15.5333 15.54 15.0603 15.54 14.503V10.972H16.53V14.371C16.53 14.965 16.6804 15.4233 16.981 15.746C17.2817 16.0613 17.6924 16.219 18.213 16.219C18.7484 16.219 19.17 16.054 19.478 15.724C19.786 15.394 19.94 14.9137 19.94 14.283V10.972H20.941ZM25.5682 10.862C26.3015 10.862 26.8955 11.0857 27.3502 11.533C27.8048 11.973 28.0322 12.611 28.0322 13.447V17H27.0422V13.59C27.0422 12.9887 26.8918 12.5303 26.5912 12.215C26.2905 11.8923 25.8798 11.731 25.3592 11.731C24.8312 11.731 24.4095 11.896 24.0942 12.226C23.7862 12.556 23.6322 13.0363 23.6322 13.667V17H22.6312V10.972H23.6322V11.83C23.8302 11.522 24.0978 11.2837 24.4352 11.115C24.7798 10.9463 25.1575 10.862 25.5682 10.862ZM29.2933 13.975C29.2933 13.3517 29.418 12.809 29.6673 12.347C29.9166 11.8777 30.2613 11.5147 30.7013 11.258C31.1486 11.0013 31.6583 10.873 32.2303 10.873C32.971 10.873 33.5796 11.0527 34.0563 11.412C34.5403 11.7713 34.8593 12.27 35.0133 12.908H33.9353C33.8326 12.5413 33.631 12.2517 33.3303 12.039C33.037 11.8263 32.6703 11.72 32.2303 11.72C31.6583 11.72 31.1963 11.918 30.8443 12.314C30.4923 12.7027 30.3163 13.2563 30.3163 13.975C30.3163 14.701 30.4923 15.262 30.8443 15.658C31.1963 16.054 31.6583 16.252 32.2303 16.252C32.6703 16.252 33.037 16.1493 33.3303 15.944C33.6236 15.7387 33.8253 15.4453 33.9353 15.064H35.0133C34.852 15.68 34.5293 16.175 34.0453 16.549C33.5613 16.9157 32.9563 17.099 32.2303 17.099C31.6583 17.099 31.1486 16.9707 30.7013 16.714C30.2613 16.4573 29.9166 16.0943 29.6673 15.625C29.418 15.1557 29.2933 14.6057 29.2933 13.975ZM39.341 10.862C39.7956 10.862 40.2063 10.961 40.573 11.159C40.9396 11.3497 41.2256 11.6393 41.431 12.028C41.6436 12.4167 41.75 12.8897 41.75 13.447V17H40.76V13.59C40.76 12.9887 40.6096 12.5303 40.309 12.215C40.0083 11.8923 39.5976 11.731 39.077 11.731C38.549 11.731 38.1273 11.896 37.812 12.226C37.504 12.556 37.35 13.0363 37.35 13.667V17H36.349V8.86H37.35V11.83C37.548 11.522 37.8193 11.2837 38.164 11.115C38.516 10.9463 38.9083 10.862 39.341 10.862Z" fill="#71B1A1"/>
</svg>
