<svg width="13" height="15" viewBox="0 0 13 15" fill="none" xmlns="http://www.w3.org/2000/svg">
<path d="M12.8049 4.90245C12.0366 1.52195 9.0878 0 6.49755 0C6.49755 0 6.49755 0 6.49024 0C3.90731 0 0.951205 1.51464 0.182911 4.89513C-0.673188 8.67074 1.63901 11.8683 3.7317 13.8805C4.50731 14.6269 5.50243 15 6.49755 15C7.49268 15 8.4878 14.6269 9.2561 13.8805C11.3488 11.8683 13.661 8.67806 12.8049 4.90245ZM6.49755 8.56831C5.22438 8.56831 4.19267 7.5366 4.19267 6.26342C4.19267 4.99025 5.22438 3.95854 6.49755 3.95854C7.77073 3.95854 8.80244 4.99025 8.80244 6.26342C8.80244 7.5366 7.77073 8.56831 6.49755 8.56831Z" fill="#71B1A1"/>
</svg>
