<svg width="17" height="17" viewBox="0 0 17 17" fill="none" xmlns="http://www.w3.org/2000/svg">
<path d="M8.02294 0.346476C8.1731 -0.115666 8.8269 -0.115666 8.97706 0.346476L10.6398 5.46375C10.7069 5.67043 10.8995 5.81036 11.1168 5.81036H16.4975C16.9834 5.81036 17.1854 6.43217 16.7923 6.71779L12.4393 9.88043C12.2635 10.0082 12.1899 10.2346 12.2571 10.4413L13.9198 15.5585C14.0699 16.0207 13.541 16.405 13.1479 16.1194L8.79484 12.9567C8.61903 12.829 8.38097 12.829 8.20516 12.9567L3.85214 16.1194C3.45902 16.405 2.93008 16.0207 3.08024 15.5585L4.74294 10.4413C4.8101 10.2346 4.73653 10.0082 4.56072 9.88043L0.207708 6.71779C-0.185413 6.43217 0.0166249 5.81036 0.50255 5.81036H5.88317C6.10048 5.81036 6.29308 5.67043 6.36023 5.46375L8.02294 0.346476Z" fill="#121212"/>
</svg>
