<svg width="21" height="21" viewBox="0 0 21 21" fill="none" xmlns="http://www.w3.org/2000/svg">
<path fill-rule="evenodd" clip-rule="evenodd" d="M11.7132 4.71409C11.7132 4.04357 11.1701 3.5 10.5001 3.5C9.83015 3.5 9.28705 4.04357 9.28705 4.71409V9.28588H4.71306C4.04311 9.28588 3.5 9.82945 3.5 10.5C3.5 11.1705 4.04311 11.7141 4.71306 11.7141H9.28705V16.2859C9.28705 16.9564 9.83015 17.5 10.5001 17.5C11.1701 17.5 11.7132 16.9564 11.7132 16.2859V11.7141H16.2869C16.9569 11.7141 17.5 11.1705 17.5 10.5C17.5 9.82945 16.9569 9.28588 16.2869 9.28588H11.7132V4.71409Z" fill="white"/>
</svg>
