<svg width="17" height="21" viewBox="0 0 17 21" fill="none" xmlns="http://www.w3.org/2000/svg">
<path fill-rule="evenodd" clip-rule="evenodd" d="M4.31158 0.284775C5.41735 0.0584761 6.78044 0 8.42087 0C10.0613 0 11.4244 0.0584761 12.5302 0.284775C13.6498 0.513918 14.5726 0.928182 15.2659 1.68767C15.951 2.4382 16.3322 3.43931 16.5507 4.6806C16.7688 5.91966 16.8373 7.47534 16.8373 9.40288C16.8373 10.1468 16.8385 10.8453 16.8397 11.5004C16.8453 14.5989 16.8492 16.729 16.7095 18.1183C16.6261 18.9472 16.4824 19.6508 16.1663 20.1561C15.9964 20.4279 15.7706 20.6531 15.4775 20.803C15.1897 20.9503 14.8858 21 14.5949 21C13.9303 21 13.2858 20.6344 12.7657 20.273C12.2579 19.9201 11.7233 19.4633 11.2178 19.0313C11.1778 18.9971 11.1379 18.963 11.0982 18.9291C10.54 18.4527 10.0157 18.0128 9.5237 17.6898C9.01334 17.3547 8.65459 17.2261 8.42087 17.2261C8.18714 17.2261 7.82839 17.3547 7.31804 17.6898C6.82603 18.0128 6.30174 18.4527 5.74354 18.9291C5.70386 18.963 5.66397 18.9971 5.62389 19.0313C5.1184 19.4633 4.58387 19.9201 4.07607 20.273C3.55589 20.6344 2.91147 21 2.24687 21C1.95596 21 1.65205 20.9503 1.3642 20.803C1.0711 20.6531 0.845379 20.4279 0.675415 20.1561C0.359371 19.6508 0.215637 18.9472 0.132284 18.1183C-0.00741921 16.729 -0.00356929 14.5989 0.00203075 11.5004C0.00321485 10.8453 0.00447724 10.1468 0.00447724 9.40288C0.00447724 7.47534 0.0729444 5.91966 0.291046 4.6806C0.509539 3.43931 0.890732 2.4382 1.57584 1.68767C2.26913 0.928182 3.19191 0.513918 4.31158 0.284775ZM1.80437 4.94697C1.61076 6.04688 1.54106 7.49048 1.54106 9.40288C1.54106 10.1649 1.53986 10.8747 1.53874 11.5356C1.53348 14.6352 1.53004 16.6607 1.66116 17.9646C1.74196 18.7681 1.86457 19.1597 1.97819 19.3414C2.02306 19.4131 2.05301 19.4294 2.06405 19.4351C2.08034 19.4434 2.12904 19.4634 2.24687 19.4634C2.39922 19.4634 2.70107 19.3573 3.19927 19.0111C3.64093 18.7042 4.11871 18.2961 4.64326 17.8481C4.6773 17.819 4.71152 17.7898 4.74595 17.7604C5.29307 17.2934 5.88895 16.7899 6.47473 16.4053C7.04216 16.0327 7.71881 15.6896 8.42087 15.6896C9.12292 15.6896 9.79957 16.0327 10.367 16.4053C10.9528 16.7899 11.5487 17.2934 12.0958 17.7604C12.1302 17.7898 12.1644 17.819 12.1985 17.8481C12.723 18.2961 13.2008 18.7042 13.6425 19.0111C14.1407 19.3573 14.4425 19.4634 14.5949 19.4634C14.7127 19.4634 14.7614 19.4434 14.7777 19.4351C14.7887 19.4294 14.8187 19.4131 14.8635 19.3414C14.9772 19.1597 15.0998 18.7681 15.1806 17.9646C15.3117 16.6607 15.3083 14.6352 15.303 11.5356C15.3019 10.8747 15.3007 10.1649 15.3007 9.40288C15.3007 7.49048 15.231 6.04688 15.0374 4.94697C14.8442 3.84929 14.5401 3.17174 14.131 2.72361C13.7301 2.28443 13.1498 1.98002 12.2221 1.79016C11.2804 1.59745 10.0518 1.53659 8.42087 1.53659C6.7899 1.53659 5.56129 1.59745 4.61966 1.79016C3.69192 1.98002 3.1116 2.28443 2.71071 2.72361C2.30164 3.17174 1.99758 3.84929 1.80437 4.94697Z" fill="#130F26"/>
</svg>
