<svg width="20" height="20" viewBox="0 0 20 20" fill="none" xmlns="http://www.w3.org/2000/svg">
<path fill-rule="evenodd" clip-rule="evenodd" d="M10.7421 4.35664C10.5059 4.60938 10.5068 5.01828 10.7439 5.26994L14.5933 9.35411H3.93931L3.85707 9.36C3.56125 9.40276 3.33325 9.67296 3.33325 9.99991C3.33325 10.3566 3.60459 10.6457 3.93931 10.6457H14.592L10.7439 14.7298L10.6851 14.8021C10.5086 15.0545 10.5274 15.4133 10.7421 15.6431C10.9783 15.8958 11.3621 15.8966 11.5992 15.645L16.4738 10.4721C16.5872 10.3593 16.66 10.2006 16.666 10.0238C16.6721 9.85005 16.6128 9.67418 16.488 9.54177L11.5992 4.35467L11.5311 4.2923C11.2934 4.10526 10.9568 4.12687 10.7421 4.35664Z" fill="white"/>
</svg>
