<svg width="47" height="28" viewBox="0 0 47 28" fill="none" xmlns="http://www.w3.org/2000/svg">
<rect x="0.5" y="0.5" width="46" height="27" rx="9.5" fill="white"/>
<rect x="0.5" y="0.5" width="46" height="27" rx="9.5" stroke="#71B1A1"/>
<path d="M10.495 10.625V9.481H12.783V17.5H11.518V10.625H10.495Z" fill="#71B1A1"/>
<path d="M27.5245 6.46353C27.6741 6.00287 28.3259 6.00287 28.4755 6.46353L29.9084 10.8734C29.9753 11.0794 30.1673 11.2188 30.3839 11.2188H35.0207C35.505 11.2188 35.7064 11.8387 35.3146 12.1234L31.5633 14.8488C31.3881 14.9761 31.3148 15.2018 31.3817 15.4078L32.8145 19.8176C32.9642 20.2783 32.437 20.6613 32.0451 20.3766L28.2939 17.6512C28.1186 17.5239 27.8814 17.5239 27.7061 17.6512L23.9549 20.3766C23.563 20.6613 23.0358 20.2783 23.1855 19.8176L24.6183 15.4078C24.6852 15.2018 24.6119 14.9761 24.4367 14.8488L20.6854 12.1234C20.2936 11.8387 20.495 11.2188 20.9793 11.2188H25.6161C25.8327 11.2188 26.0247 11.0794 26.0916 10.8734L27.5245 6.46353Z" fill="#71B1A1"/>
</svg>
