<svg width="20" height="20" viewBox="0 0 20 20" fill="none" xmlns="http://www.w3.org/2000/svg">
<path d="M10.0179 19.7989C7.34485 19.7989 4.6822 19.3741 2.14388 18.5246C1.20107 18.2138 0.486199 17.5403 0.175384 16.6908C-0.135431 15.8412 -0.0318264 14.8673 0.475838 14.0178L1.79162 11.8213C2.08172 11.3344 2.34073 10.4227 2.34073 9.85284V7.67713C2.34073 3.43969 5.78042 0 10.0179 0C14.2553 0 17.695 3.43969 17.695 7.67713V9.85284C17.695 10.4123 17.954 11.3344 18.2441 11.8213L19.5599 14.0178C20.0468 14.8259 20.1297 15.7894 19.8085 16.6701C19.4874 17.5507 18.7829 18.2241 17.8918 18.5246C15.3535 19.3845 12.6909 19.7989 10.0179 19.7989ZM10.0179 1.56444C6.64034 1.56444 3.89481 4.30997 3.89481 7.6875V9.8632C3.89481 10.7024 3.56327 11.9146 3.12813 12.6295L1.81234 14.8362C1.54297 15.2817 1.48081 15.7583 1.63622 16.1727C1.79162 16.5872 2.14388 16.898 2.64118 17.0638C7.40702 18.6489 12.6494 18.6489 17.4153 17.0638C17.8608 16.9187 18.2027 16.5872 18.3581 16.152C18.5238 15.7169 18.472 15.2403 18.2337 14.8362L16.918 12.6398C16.4828 11.9249 16.1513 10.7128 16.1513 9.87356V7.69786C16.1409 4.30997 13.3954 1.56444 10.0179 1.56444Z" fill="#D9D9D9"/>
</svg>
