<svg width="10" height="9" viewBox="0 0 10 9" fill="none" xmlns="http://www.w3.org/2000/svg">
<path d="M7.59183 8.99903C7.52419 8.9993 7.45818 8.97821 7.40322 8.93878L4.8199 7.06592L2.23658 8.93878C2.18139 8.97881 2.1149 9.00025 2.04672 9C1.97854 8.99975 1.91221 8.97783 1.85731 8.9374C1.80241 8.89697 1.7618 8.84013 1.74133 8.77509C1.72086 8.71005 1.72161 8.6402 1.74346 8.57561L2.751 5.59137L0.139761 3.80066C0.0831994 3.76192 0.0405103 3.7061 0.0179306 3.64137C-0.00464922 3.57663 -0.0059363 3.50638 0.0142574 3.44086C0.0344511 3.37534 0.0750672 3.318 0.130172 3.27721C0.185276 3.23642 0.25198 3.21432 0.320539 3.21414H3.542L4.51419 0.222262C4.53513 0.157668 4.57599 0.101368 4.63092 0.061438C4.68584 0.0215079 4.752 0 4.8199 0C4.88781 0 4.95397 0.0215079 5.00889 0.061438C5.06381 0.101368 5.10468 0.157668 5.12562 0.222262L6.0978 3.21514H9.31927C9.38791 3.21511 9.45476 3.23705 9.51003 3.27777C9.5653 3.31848 9.60608 3.37582 9.6264 3.44138C9.64672 3.50695 9.64552 3.5773 9.62296 3.64214C9.6004 3.70697 9.55768 3.76287 9.50105 3.80167L6.88881 5.59137L7.89574 8.57481C7.91205 8.62311 7.91664 8.6746 7.90913 8.72503C7.90161 8.77546 7.88221 8.82337 7.85252 8.86482C7.82283 8.90626 7.7837 8.94005 7.73837 8.96339C7.69305 8.98672 7.64282 8.99894 7.59183 8.99903Z" fill="#FFAD30"/>
</svg>
