<svg width="61" height="20" viewBox="0 0 61 20" fill="none" xmlns="http://www.w3.org/2000/svg">
<g opacity="0.7">
<rect width="61" height="20" rx="6" fill="#D9D9D9"/>
<path d="M22.7942 13.056C22.4262 13.056 22.0955 12.992 21.8022 12.864C21.5142 12.7307 21.2875 12.5493 21.1222 12.32C20.9568 12.0853 20.8715 11.816 20.8662 11.512H21.6422C21.6688 11.7733 21.7755 11.9947 21.9622 12.176C22.1542 12.352 22.4315 12.44 22.7942 12.44C23.1408 12.44 23.4128 12.3547 23.6102 12.184C23.8128 12.008 23.9142 11.784 23.9142 11.512C23.9142 11.2987 23.8555 11.1253 23.7382 10.992C23.6208 10.8587 23.4742 10.7573 23.2982 10.688C23.1222 10.6187 22.8848 10.544 22.5862 10.464C22.2182 10.368 21.9222 10.272 21.6982 10.176C21.4795 10.08 21.2902 9.93067 21.1302 9.728C20.9755 9.52 20.8982 9.24267 20.8982 8.896C20.8982 8.592 20.9755 8.32267 21.1302 8.088C21.2848 7.85333 21.5008 7.672 21.7782 7.544C22.0608 7.416 22.3835 7.352 22.7462 7.352C23.2688 7.352 23.6955 7.48267 24.0262 7.744C24.3622 8.00533 24.5515 8.352 24.5942 8.784H23.7942C23.7675 8.57067 23.6555 8.384 23.4582 8.224C23.2608 8.05867 22.9995 7.976 22.6742 7.976C22.3702 7.976 22.1222 8.056 21.9302 8.216C21.7382 8.37067 21.6422 8.58933 21.6422 8.872C21.6422 9.07467 21.6982 9.24 21.8102 9.368C21.9275 9.496 22.0688 9.59467 22.2342 9.664C22.4048 9.728 22.6422 9.80267 22.9462 9.888C23.3142 9.98933 23.6102 10.0907 23.8342 10.192C24.0582 10.288 24.2502 10.44 24.4102 10.648C24.5702 10.8507 24.6502 11.128 24.6502 11.48C24.6502 11.752 24.5782 12.008 24.4342 12.248C24.2902 12.488 24.0768 12.6827 23.7942 12.832C23.5115 12.9813 23.1782 13.056 22.7942 13.056ZM29.7215 10.64C29.7215 10.7787 29.7135 10.9253 29.6975 11.08H26.1935C26.2201 11.512 26.3668 11.8507 26.6335 12.096C26.9055 12.336 27.2335 12.456 27.6175 12.456C27.9321 12.456 28.1935 12.384 28.4015 12.24C28.6148 12.0907 28.7641 11.8933 28.8495 11.648H29.6335C29.5161 12.0693 29.2815 12.4133 28.9295 12.68C28.5775 12.9413 28.1401 13.072 27.6175 13.072C27.2015 13.072 26.8281 12.9787 26.4975 12.792C26.1721 12.6053 25.9161 12.3413 25.7295 12C25.5428 11.6533 25.4495 11.2533 25.4495 10.8C25.4495 10.3467 25.5401 9.94933 25.7215 9.608C25.9028 9.26667 26.1561 9.00533 26.4815 8.824C26.8121 8.63733 27.1908 8.544 27.6175 8.544C28.0335 8.544 28.4015 8.63467 28.7215 8.816C29.0415 8.99733 29.2868 9.248 29.4575 9.568C29.6335 9.88267 29.7215 10.24 29.7215 10.64ZM28.9695 10.488C28.9695 10.2107 28.9081 9.97333 28.7855 9.776C28.6628 9.57333 28.4948 9.42133 28.2815 9.32C28.0735 9.21333 27.8415 9.16 27.5855 9.16C27.2175 9.16 26.9028 9.27733 26.6415 9.512C26.3855 9.74667 26.2388 10.072 26.2015 10.488H28.9695ZM32.8184 8.536C33.3517 8.536 33.7837 8.69867 34.1144 9.024C34.4451 9.344 34.6104 9.808 34.6104 10.416V13H33.8904V10.52C33.8904 10.0827 33.7811 9.74933 33.5624 9.52C33.3437 9.28533 33.0451 9.168 32.6664 9.168C32.2824 9.168 31.9757 9.288 31.7464 9.528C31.5224 9.768 31.4104 10.1173 31.4104 10.576V13H30.6824V8.616H31.4104V9.24C31.5544 9.016 31.7491 8.84267 31.9944 8.72C32.2451 8.59733 32.5197 8.536 32.8184 8.536ZM35.5276 10.792C35.5276 10.344 35.6183 9.952 35.7996 9.616C35.9809 9.27467 36.2289 9.01067 36.5436 8.824C36.8636 8.63733 37.2209 8.544 37.6156 8.544C37.9569 8.544 38.2743 8.624 38.5676 8.784C38.8609 8.93867 39.0849 9.144 39.2396 9.4V7.08H39.9756V13H39.2396V12.176C39.0956 12.4373 38.8823 12.6533 38.5996 12.824C38.3169 12.9893 37.9863 13.072 37.6076 13.072C37.2183 13.072 36.8636 12.976 36.5436 12.784C36.2289 12.592 35.9809 12.3227 35.7996 11.976C35.6183 11.6293 35.5276 11.2347 35.5276 10.792ZM39.2396 10.8C39.2396 10.4693 39.1729 10.1813 39.0396 9.936C38.9063 9.69067 38.7249 9.504 38.4956 9.376C38.2716 9.24267 38.0236 9.176 37.7516 9.176C37.4796 9.176 37.2316 9.24 37.0076 9.368C36.7836 9.496 36.6049 9.68267 36.4716 9.928C36.3383 10.1733 36.2716 10.4613 36.2716 10.792C36.2716 11.128 36.3383 11.4213 36.4716 11.672C36.6049 11.9173 36.7836 12.1067 37.0076 12.24C37.2316 12.368 37.4796 12.432 37.7516 12.432C38.0236 12.432 38.2716 12.368 38.4956 12.24C38.7249 12.1067 38.9063 11.9173 39.0396 11.672C39.1729 11.4213 39.2396 11.1307 39.2396 10.8Z" fill="white"/>
</g>
</svg>
