<svg width="50" height="28" viewBox="0 0 50 28" fill="none" xmlns="http://www.w3.org/2000/svg">
<rect x="0.5" y="0.5" width="49" height="27" rx="9.5" fill="white"/>
<rect x="0.5" y="0.5" width="49" height="27" rx="9.5" stroke="#71B1A1"/>
<path d="M15.753 10.416H11.892V12.924C12.0607 12.6893 12.31 12.4987 12.64 12.352C12.97 12.198 13.3257 12.121 13.707 12.121C14.3157 12.121 14.8107 12.2493 15.192 12.506C15.5733 12.7553 15.8447 13.0817 16.006 13.485C16.1747 13.881 16.259 14.3027 16.259 14.75C16.259 15.278 16.16 15.751 15.962 16.169C15.764 16.587 15.4597 16.917 15.049 17.159C14.6457 17.401 14.1433 17.522 13.542 17.522C12.772 17.522 12.1487 17.324 11.672 16.928C11.1953 16.532 10.9057 16.004 10.803 15.344H11.782C11.8773 15.762 12.079 16.0883 12.387 16.323C12.695 16.5577 13.0837 16.675 13.553 16.675C14.1323 16.675 14.5687 16.5027 14.862 16.158C15.1553 15.806 15.302 15.344 15.302 14.772C15.302 14.2 15.1553 13.76 14.862 13.452C14.5687 13.1367 14.136 12.979 13.564 12.979C13.1753 12.979 12.8343 13.0743 12.541 13.265C12.255 13.4483 12.046 13.7013 11.914 14.024H10.968V9.536H15.753V10.416Z" fill="#71B1A1"/>
<path d="M30.5245 6.46353C30.6741 6.00287 31.3259 6.00287 31.4755 6.46353L32.9084 10.8734C32.9753 11.0794 33.1673 11.2188 33.3839 11.2188H38.0207C38.505 11.2188 38.7064 11.8387 38.3146 12.1234L34.5633 14.8488C34.3881 14.9761 34.3148 15.2018 34.3817 15.4078L35.8145 19.8176C35.9642 20.2783 35.437 20.6613 35.0451 20.3766L31.2939 17.6512C31.1186 17.5239 30.8814 17.5239 30.7061 17.6512L26.9549 20.3766C26.563 20.6613 26.0358 20.2783 26.1855 19.8176L27.6183 15.4078C27.6852 15.2018 27.6119 14.9761 27.4367 14.8488L23.6854 12.1234C23.2936 11.8387 23.495 11.2188 23.9793 11.2188H28.6161C28.8327 11.2188 29.0247 11.0794 29.0916 10.8734L30.5245 6.46353Z" fill="#71B1A1"/>
</svg>
