<svg width="20" height="10" viewBox="0 0 20 10" fill="none" xmlns="http://www.w3.org/2000/svg">
<path d="M2.58944 0C1.60246 0 1.2579 0.0665369 0.904015 0.255799C0.621987 0.406629 0.406629 0.621987 0.255799 0.904015C0.0665369 1.2579 0 1.60246 0 2.58944V6.91056C0 7.89754 0.0665369 8.2421 0.255799 8.59599C0.406629 8.87801 0.621987 9.09337 0.904015 9.2442C1.2579 9.43346 1.60246 9.5 2.58944 9.5H17.4106C18.3975 9.5 18.7421 9.43346 19.096 9.2442C19.378 9.09337 19.5934 8.87801 19.7442 8.59599C19.9335 8.2421 20 7.89754 20 6.91056V2.58944C20 1.60246 19.9335 1.2579 19.7442 0.904015C19.5934 0.621987 19.378 0.406629 19.096 0.255799C18.7421 0.0665369 18.3975 0 17.4106 0L2.58944 0Z" fill="black" fill-opacity="0.36"/>
</svg>
