<svg width="16" height="16" viewBox="0 0 16 16" fill="none" xmlns="http://www.w3.org/2000/svg">
<path d="M10.5333 1.47335C10.26 1.20002 9.78662 1.38668 9.78662 1.76668V4.09335C9.78662 5.06668 10.6133 5.87335 11.62 5.87335C12.2533 5.88002 13.1333 5.88002 13.8866 5.88002C14.2666 5.88002 14.4666 5.43335 14.2 5.16668C13.24 4.20002 11.52 2.46002 10.5333 1.47335Z" fill="#FF9C00"/>
<path d="M13.6665 6.79331H11.7398C10.1598 6.79331 8.87317 5.50665 8.87317 3.92665V1.99998C8.87317 1.63331 8.57317 1.33331 8.2065 1.33331H5.37984C3.3265 1.33331 1.6665 2.66665 1.6665 5.04665V10.9533C1.6665 13.3333 3.3265 14.6666 5.37984 14.6666H10.6198C12.6732 14.6666 14.3332 13.3333 14.3332 10.9533V7.45998C14.3332 7.09331 14.0332 6.79331 13.6665 6.79331ZM7.6665 11.8333H4.99984C4.7265 11.8333 4.49984 11.6066 4.49984 11.3333C4.49984 11.06 4.7265 10.8333 4.99984 10.8333H7.6665C7.93984 10.8333 8.1665 11.06 8.1665 11.3333C8.1665 11.6066 7.93984 11.8333 7.6665 11.8333ZM8.99984 9.16665H4.99984C4.7265 9.16665 4.49984 8.93998 4.49984 8.66665C4.49984 8.39331 4.7265 8.16665 4.99984 8.16665H8.99984C9.27317 8.16665 9.49984 8.39331 9.49984 8.66665C9.49984 8.93998 9.27317 9.16665 8.99984 9.16665Z" fill="#FF9C00"/>
</svg>
