<svg width="17" height="17" viewBox="0 0 17 17" fill="none" xmlns="http://www.w3.org/2000/svg">
<path d="M8.49992 16.1146C4.78825 16.1146 1.77075 13.0971 1.77075 9.38542C1.77075 5.67375 4.78825 2.65625 8.49992 2.65625C12.2116 2.65625 15.2291 5.67375 15.2291 9.38542C15.2291 13.0971 12.2116 16.1146 8.49992 16.1146ZM8.49992 3.71875C5.37617 3.71875 2.83325 6.26167 2.83325 9.38542C2.83325 12.5092 5.37617 15.0521 8.49992 15.0521C11.6237 15.0521 14.1666 12.5092 14.1666 9.38542C14.1666 6.26167 11.6237 3.71875 8.49992 3.71875Z" fill="#D9D9D9"/>
<path d="M8.5 9.73954C8.20958 9.73954 7.96875 9.49871 7.96875 9.20829V5.66663C7.96875 5.37621 8.20958 5.13538 8.5 5.13538C8.79042 5.13538 9.03125 5.37621 9.03125 5.66663V9.20829C9.03125 9.49871 8.79042 9.73954 8.5 9.73954Z" fill="#D9D9D9"/>
<path d="M10.625 1.94788H6.375C6.08458 1.94788 5.84375 1.70704 5.84375 1.41663C5.84375 1.12621 6.08458 0.885376 6.375 0.885376H10.625C10.9154 0.885376 11.1562 1.12621 11.1562 1.41663C11.1562 1.70704 10.9154 1.94788 10.625 1.94788Z" fill="#D9D9D9"/>
</svg>
