<svg width="13" height="15" viewBox="0 0 13 15" fill="none" xmlns="http://www.w3.org/2000/svg">
<path d="M12.8048 4.90243C12.0365 1.52195 9.08776 0 6.49753 0C6.49753 0 6.49753 0 6.49021 0C3.90729 0 0.951201 1.51463 0.18291 4.89511C-0.673185 8.67071 1.639 11.8683 3.73168 13.8804C4.50729 14.6268 5.50241 15 6.49753 15C7.49265 15 8.48777 14.6268 9.25606 13.8804C11.3487 11.8683 13.6609 8.67802 12.8048 4.90243ZM6.49753 8.56827C5.22436 8.56827 4.19266 7.53657 4.19266 6.2634C4.19266 4.99023 5.22436 3.95853 6.49753 3.95853C7.77069 3.95853 8.8024 4.99023 8.8024 6.2634C8.8024 7.53657 7.77069 8.56827 6.49753 8.56827Z" fill="#71B1A1"/>
</svg>
