<svg width="24" height="24" viewBox="0 0 24 24" fill="none" xmlns="http://www.w3.org/2000/svg">
<path d="M12.0205 2.5498C15.3637 2.54997 18.0898 5.27563 18.0898 8.62988V10.5C18.0899 10.8024 18.1571 11.1686 18.25 11.501C18.3424 11.8318 18.4748 12.1779 18.6318 12.4365V12.4375L19.7617 14.3174C20.0945 14.8788 20.1572 15.5389 19.9326 16.1426C19.7335 16.6689 19.3426 17.095 18.8281 17.335L18.6006 17.4258C17.5447 17.7777 16.4616 18.0503 15.3711 18.2256L15.3604 18.2275C15.2468 18.2482 15.159 18.2638 15.0752 18.2715L15.0566 18.2734L15.0381 18.2764L14.5254 18.3428L14.5127 18.3447C14.3069 18.3728 14.0888 18.3919 13.8564 18.4121H13.8516C13.2481 18.4705 12.6345 18.5 12.0205 18.5C11.396 18.5 10.7712 18.4706 10.1572 18.4121L10.1475 18.4111L9.76855 18.376C9.64376 18.3617 9.52023 18.3442 9.39648 18.3252L9.38672 18.3242L8.95117 18.2646H8.9502C8.88955 18.2541 8.83125 18.2458 8.7832 18.2393L8.63965 18.2178L8.63477 18.2168L7.82227 18.0645C7.01423 17.8979 6.218 17.6889 5.42871 17.4258L5.4248 17.4238L5.18457 17.332C4.64406 17.0891 4.24685 16.6626 4.05957 16.1562L4.05859 16.1543L3.99316 15.9395C3.8706 15.4274 3.96146 14.844 4.28027 14.3027L5.40918 12.4277L5.41211 12.4229C5.56227 12.1663 5.69093 11.8199 5.78223 11.4883C5.8733 11.1573 5.94037 10.7922 5.94043 10.4902V8.62988C5.94043 5.27763 8.66481 2.55963 12.0205 2.5498ZM11.9902 5.63965C11.2942 5.63965 10.7307 6.20345 10.7305 6.89941V10C10.7306 10.6961 11.2942 11.2598 11.9902 11.2598C12.6863 11.2597 13.2499 10.696 13.25 10V6.89941C13.2498 6.20346 12.6862 5.63967 11.9902 5.63965Z" fill="#DBEBE7" stroke="#129575"/>
<path d="M14.8302 20.01C14.4102 21.17 13.3002 22 12.0002 22C11.2102 22 10.4302 21.68 9.88018 21.11C9.56018 20.81 9.32018 20.41 9.18018 20C9.31018 20.02 9.44018 20.03 9.58018 20.05C9.81018 20.08 10.0502 20.11 10.2902 20.13C10.8602 20.18 11.4402 20.21 12.0202 20.21C12.5902 20.21 13.1602 20.18 13.7202 20.13C13.9302 20.11 14.1402 20.1 14.3402 20.07C14.5002 20.05 14.6602 20.03 14.8302 20.01Z" fill="#DBEBE7" stroke="#129575"/>
</svg>
