<svg width="14" height="18" viewBox="0 0 14 18" fill="none" xmlns="http://www.w3.org/2000/svg">
<path fill-rule="evenodd" clip-rule="evenodd" d="M3.58406 0.236723C4.50325 0.0486091 5.63634 0 6.99997 0C8.36359 0 9.49669 0.0486091 10.4159 0.236723C11.3466 0.427202 12.1137 0.771565 12.69 1.4029C13.2595 2.02679 13.5764 2.85898 13.758 3.89081C13.9393 4.9208 13.9962 6.21399 13.9962 7.81628C13.9962 8.43466 13.9973 9.01527 13.9982 9.55989C14.0029 12.1355 14.0061 13.9062 13.89 15.0611C13.8207 15.7501 13.7012 16.335 13.4385 16.7551C13.2972 16.981 13.1096 17.1682 12.8659 17.2928C12.6266 17.4152 12.374 17.4565 12.1322 17.4565C11.5797 17.4565 11.044 17.1526 10.6116 16.8522C10.1895 16.5589 9.74518 16.1792 9.32498 15.8201C9.29167 15.7916 9.25852 15.7633 9.22554 15.7351C8.76152 15.3391 8.3257 14.9734 7.91671 14.7049C7.49247 14.4263 7.19425 14.3195 6.99997 14.3195C6.80568 14.3195 6.50746 14.4263 6.08322 14.7049C5.67423 14.9734 5.23841 15.3391 4.7744 15.7351C4.74141 15.7633 4.70825 15.7916 4.67494 15.8201C4.25474 16.1792 3.8104 16.5589 3.38829 16.8522C2.95589 17.1526 2.4202 17.4565 1.86774 17.4565C1.62592 17.4565 1.37329 17.4152 1.13401 17.2928C0.890369 17.1682 0.702733 16.981 0.561448 16.7551C0.298733 16.335 0.179251 15.7501 0.109963 15.0611C-0.00616732 13.9062 -0.00296702 12.1355 0.00168809 9.55989C0.00267239 9.01527 0.00372177 8.43466 0.00372177 7.81628C0.00372177 6.21399 0.0606361 4.9208 0.241937 3.89081C0.423562 2.85898 0.740434 2.02679 1.30994 1.4029C1.88624 0.771565 2.65332 0.427202 3.58406 0.236723ZM1.49991 4.11224C1.33897 5.02655 1.28103 6.22657 1.28103 7.81628C1.28103 8.44972 1.28003 9.03973 1.2791 9.58915C1.27473 12.1657 1.27187 13.8494 1.38086 14.9333C1.44803 15.6013 1.54995 15.9268 1.6444 16.0778C1.6817 16.1374 1.70659 16.151 1.71577 16.1557C1.72931 16.1626 1.76979 16.1792 1.86774 16.1792C1.99439 16.1792 2.24531 16.091 2.65944 15.8033C3.02658 15.5482 3.42374 15.2089 3.85978 14.8365C3.88807 14.8123 3.91652 14.788 3.94514 14.7636C4.39994 14.3754 4.89527 13.9568 5.38221 13.6371C5.8539 13.3274 6.41637 13.0422 6.99997 13.0422C7.58356 13.0422 8.14604 13.3274 8.61772 13.6371C9.10466 13.9568 9.6 14.3754 10.0548 14.7636C10.0834 14.788 10.1119 14.8123 10.1402 14.8365C10.5762 15.2089 10.9734 15.5482 11.3405 15.8033C11.7546 16.091 12.0055 16.1792 12.1322 16.1792C12.2301 16.1792 12.2706 16.1626 12.2842 16.1557C12.2933 16.151 12.3182 16.1374 12.3555 16.0778C12.45 15.9268 12.5519 15.6013 12.6191 14.9333C12.7281 13.8494 12.7252 12.1657 12.7208 9.58913C12.7199 9.03972 12.7189 8.44972 12.7189 7.81628C12.7189 6.22657 12.661 5.02655 12.5 4.11224C12.3394 3.19978 12.0867 2.63655 11.7466 2.26404C11.4134 1.89897 10.931 1.64592 10.1598 1.4881C9.37703 1.3279 8.35573 1.27731 6.99997 1.27731C5.6442 1.27731 4.6229 1.3279 3.84016 1.4881C3.06896 1.64592 2.58656 1.89897 2.25332 2.26404C1.91327 2.63655 1.66052 3.19978 1.49991 4.11224Z" fill="#130F26"/>
</svg>
