<svg width="18" height="17" viewBox="0 0 18 17" fill="none" xmlns="http://www.w3.org/2000/svg">
<path d="M8.60541 0.501476C11.9585 0.501642 14.6927 3.23535 14.6927 6.59951V8.47515C14.6927 8.77843 14.7602 9.14569 14.8533 9.47908C14.946 9.81084 15.0788 10.158 15.2363 10.4174V10.4184L16.3695 12.3038C16.7032 12.8669 16.7661 13.529 16.5409 14.1344C16.3412 14.6622 15.9491 15.0896 15.4331 15.3303L15.2049 15.4214C14.1459 15.7743 13.0596 16.0478 11.9659 16.2235L11.9551 16.2255C11.8412 16.2462 11.7532 16.2619 11.6691 16.2696L11.6505 16.2715L11.6319 16.2745L11.1177 16.3411L11.105 16.343C10.8986 16.3712 10.6798 16.3904 10.4468 16.4106H10.4419C9.83666 16.4692 9.22119 16.4988 8.60541 16.4988C7.97909 16.4988 7.35239 16.4693 6.73663 16.4106L6.72684 16.4096L6.34681 16.3744C6.22164 16.3601 6.09775 16.3425 5.97364 16.3234L5.96385 16.3225L5.52701 16.2627H5.52603C5.46521 16.2522 5.40674 16.2438 5.35855 16.2373L5.21457 16.2157L5.20967 16.2147L4.39477 16.0619C3.58435 15.8949 2.78577 15.6852 1.99415 15.4214L1.99023 15.4194L1.74929 15.3274C1.20719 15.0837 0.808798 14.6559 0.620969 14.1481L0.619989 14.1461L0.554366 13.9307C0.431436 13.4171 0.522565 12.832 0.842324 12.2891L1.97456 10.4086L1.9775 10.4037C2.12811 10.1464 2.25715 9.79895 2.34871 9.46635C2.44006 9.13444 2.50732 8.76825 2.50738 8.46535V6.59951C2.50738 3.23736 5.23981 0.511327 8.60541 0.501476ZM8.57505 3.60044C7.87698 3.60044 7.31178 4.16591 7.31156 4.86393V7.97367C7.31167 8.67178 7.87692 9.23716 8.57505 9.23716C9.27317 9.23714 9.83843 8.67177 9.83854 7.97367V4.86393C9.83832 4.16592 9.2731 3.60046 8.57505 3.60044Z" fill="#DBEBE7" stroke="#129575"/>
</svg>
