<svg width="16" height="16" viewBox="0 0 16 16" fill="none" xmlns="http://www.w3.org/2000/svg">
<path fill-rule="evenodd" clip-rule="evenodd" d="M7.98025 1.16669C6.91267 1.16669 6.02557 1.20474 5.30595 1.35202C4.57727 1.50114 3.97673 1.77074 3.52555 2.26501C3.07968 2.75345 2.8316 3.40497 2.68941 4.21279C2.54747 5.01917 2.50291 6.03159 2.50291 7.28602C2.50291 7.77015 2.50209 8.22471 2.50132 8.65109C2.49768 10.6675 2.49517 12.0538 2.58609 12.958C2.64033 13.4974 2.73388 13.9553 2.93956 14.2842C3.05017 14.461 3.19707 14.6076 3.38781 14.7052C3.57514 14.801 3.77293 14.8334 3.96225 14.8334C4.39476 14.8334 4.81415 14.5954 5.15268 14.3602C5.48315 14.1306 5.83102 13.8333 6.15999 13.5522L6.23786 13.4857C6.60113 13.1756 6.94234 12.8893 7.26253 12.6791C7.59467 12.461 7.82814 12.3774 7.98025 12.3774C8.13235 12.3774 8.36583 12.461 8.69796 12.6791C9.01816 12.8893 9.35936 13.1756 9.72264 13.4857L9.80049 13.5522C10.1295 13.8333 10.4773 14.1306 10.8078 14.3602C11.1463 14.5954 11.5657 14.8334 11.9982 14.8334C12.1876 14.8334 12.3853 14.801 12.5727 14.7052C12.7634 14.6076 12.9103 14.461 13.0209 14.2842C13.2266 13.9553 13.3202 13.4974 13.3744 12.958C13.4653 12.0538 13.4628 10.6675 13.4592 8.65109C13.4584 8.22471 13.4576 7.77015 13.4576 7.28602C13.4576 6.03159 13.413 5.01917 13.2711 4.21279C13.1289 3.40497 12.8808 2.75345 12.4349 2.26501C11.9838 1.77074 11.3832 1.50114 10.6545 1.35202C9.93492 1.20474 9.04783 1.16669 7.98025 1.16669ZM3.50291 7.28602C3.50291 6.04145 3.54827 5.10196 3.67427 4.38615C3.80001 3.67178 3.99789 3.23084 4.26411 2.9392C4.52501 2.65338 4.90268 2.45527 5.50644 2.33171C6.11925 2.2063 6.91883 2.16669 7.98025 2.16669C9.04167 2.16669 9.84124 2.2063 10.4541 2.33171C11.0578 2.45527 11.4355 2.65338 11.6964 2.9392C11.9626 3.23084 12.1605 3.67178 12.2862 4.38615C12.4122 5.10196 12.4576 6.04145 12.4576 7.28602C12.4576 7.78194 12.4584 8.24385 12.4591 8.67398C12.4625 10.6912 12.4648 12.0093 12.3794 12.8579C12.3268 13.3809 12.247 13.6357 12.1731 13.7539C12.1439 13.8006 12.1244 13.8112 12.1172 13.8149C12.1066 13.8203 12.0749 13.8334 11.9982 13.8334C11.8991 13.8334 11.7027 13.7643 11.3784 13.539C11.091 13.3393 10.7801 13.0737 10.4387 12.7821L10.3719 12.7251C10.0158 12.4211 9.628 12.0934 9.24678 11.8431C8.8775 11.6007 8.43714 11.3774 7.98025 11.3774C7.52335 11.3774 7.08299 11.6007 6.71371 11.8431C6.33249 12.0934 5.94469 12.4211 5.58864 12.7251L5.52181 12.7821L5.52177 12.7822C5.18041 13.0737 4.86949 13.3393 4.58207 13.539C4.25784 13.7643 4.0614 13.8334 3.96225 13.8334C3.88557 13.8334 3.85387 13.8203 3.84327 13.8149C3.83608 13.8112 3.8166 13.8006 3.7874 13.7539C3.71345 13.6357 3.63366 13.3809 3.58107 12.8579C3.49574 12.0093 3.49798 10.6912 3.5014 8.67399L3.5014 8.67393C3.50213 8.24381 3.50291 7.78192 3.50291 7.28602ZM5.69507 5.64515C5.41893 5.64515 5.19507 5.86901 5.19507 6.14515C5.19507 6.42129 5.41893 6.64515 5.69507 6.64515H10.2651C10.5412 6.64515 10.7651 6.42129 10.7651 6.14515C10.7651 5.86901 10.5412 5.64515 10.2651 5.64515H5.69507Z" fill="#71B1A1"/>
</svg>
