<svg width="8" height="8" viewBox="0 0 8 8" fill="none" xmlns="http://www.w3.org/2000/svg">
<g clip-path="url(#clip0_257_2690)">
<path d="M6.15608 7.50011C6.10346 7.50032 6.05212 7.48392 6.00936 7.45324L3.99983 5.99636L1.9903 7.45324C1.94737 7.48438 1.89564 7.50106 1.84261 7.50086C1.78957 7.50067 1.73797 7.48362 1.69527 7.45217C1.65256 7.42072 1.62097 7.3765 1.60505 7.32591C1.58913 7.27532 1.58971 7.22098 1.60671 7.17074L2.39046 4.84933L0.359206 3.45636C0.315208 3.42623 0.282001 3.38281 0.264436 3.33245C0.246872 3.2821 0.245871 3.22744 0.261579 3.17648C0.277287 3.12551 0.308882 3.08091 0.351747 3.04918C0.394612 3.01745 0.446501 3.00025 0.499831 3.00011H3.00577L3.76202 0.672771C3.77831 0.622524 3.8101 0.578729 3.85282 0.547668C3.89555 0.516607 3.94701 0.499876 3.99983 0.499876C4.05265 0.499876 4.10412 0.516607 4.14684 0.547668C4.18957 0.578729 4.22135 0.622524 4.23764 0.672771L4.99389 3.0009H7.49983C7.55323 3.00087 7.60523 3.01794 7.64822 3.04961C7.69122 3.08128 7.72294 3.12588 7.73875 3.17689C7.75456 3.22789 7.75362 3.28262 7.73607 3.33305C7.71852 3.38348 7.68529 3.42697 7.64124 3.45715L5.60921 4.84933L6.39249 7.17011C6.40518 7.20769 6.40875 7.24774 6.4029 7.28697C6.39706 7.32619 6.38196 7.36347 6.35886 7.39571C6.33577 7.42795 6.30533 7.45423 6.27007 7.47238C6.23481 7.49054 6.19574 7.50004 6.15608 7.50011Z" fill="#FFAD30"/>
</g>
<defs>
<clipPath id="clip0_257_2690">
<rect width="8" height="8" fill="white"/>
</clipPath>
</defs>
</svg>
