<svg width="29" height="14" viewBox="0 0 29 14" fill="none" xmlns="http://www.w3.org/2000/svg">
<rect width="29" height="14" rx="7" fill="#DBEBE7"/>
<path d="M5 10.56H13V2.56H5V10.56Z" fill="#797979"/>
<path d="M18.408 9.416C19.0853 8.872 19.616 8.42667 20 8.08C20.384 7.728 20.7067 7.36267 20.968 6.984C21.2347 6.6 21.368 6.224 21.368 5.856C21.368 5.50933 21.2827 5.23733 21.112 5.04C20.9467 4.83733 20.6773 4.736 20.304 4.736C19.9413 4.736 19.6587 4.85067 19.456 5.08C19.2587 5.304 19.152 5.60533 19.136 5.984H18.432C18.4533 5.38667 18.6347 4.92533 18.976 4.6C19.3173 4.27467 19.7573 4.112 20.296 4.112C20.8453 4.112 21.28 4.264 21.6 4.568C21.9253 4.872 22.088 5.29067 22.088 5.824C22.088 6.26667 21.9547 6.69867 21.688 7.12C21.4267 7.536 21.128 7.904 20.792 8.224C20.456 8.53867 20.0267 8.90667 19.504 9.328H22.256V9.936H18.408V9.416Z" fill="#484848"/>
</svg>
