<svg width="29" height="14" viewBox="0 0 29 14" fill="none" xmlns="http://www.w3.org/2000/svg">
<rect width="29" height="14" rx="7" fill="#71B1A1"/>
<path d="M5 10.56H13V2.56H5V10.56Z" fill="#797979"/>
<path d="M19.432 8.448C19.4853 8.752 19.608 8.98667 19.8 9.152C19.9973 9.31733 20.2613 9.4 20.592 9.4C21.0347 9.4 21.36 9.22667 21.568 8.88C21.7813 8.53333 21.8827 7.94933 21.872 7.128C21.76 7.368 21.5733 7.55733 21.312 7.696C21.0507 7.82933 20.76 7.896 20.44 7.896C20.0827 7.896 19.7627 7.824 19.48 7.68C19.2027 7.53067 18.984 7.31467 18.824 7.032C18.664 6.74933 18.584 6.408 18.584 6.008C18.584 5.43733 18.7493 4.97867 19.08 4.632C19.4107 4.28 19.88 4.104 20.488 4.104C21.2347 4.104 21.7573 4.34667 22.056 4.832C22.36 5.31733 22.512 6.04 22.512 7C22.512 7.672 22.4507 8.22667 22.328 8.664C22.2107 9.10133 22.008 9.43467 21.72 9.664C21.4373 9.89333 21.048 10.008 20.552 10.008C20.008 10.008 19.584 9.86133 19.28 9.568C18.976 9.27467 18.8027 8.90133 18.76 8.448H19.432ZM20.56 7.28C20.9173 7.28 21.2107 7.17067 21.44 6.952C21.6693 6.728 21.784 6.42667 21.784 6.048C21.784 5.648 21.672 5.32533 21.448 5.08C21.224 4.83467 20.9093 4.712 20.504 4.712C20.1307 4.712 19.832 4.82933 19.608 5.064C19.3893 5.29867 19.28 5.608 19.28 5.992C19.28 6.38133 19.3893 6.69333 19.608 6.928C19.8267 7.16267 20.144 7.28 20.56 7.28Z" fill="#484848"/>
</svg>
