<svg width="16" height="16" viewBox="0 0 16 16" fill="none" xmlns="http://www.w3.org/2000/svg">
<path d="M13.6665 6.79331H11.7398C10.1598 6.79331 8.87317 5.50665 8.87317 3.92665V1.99998C8.87317 1.63331 8.57317 1.33331 8.2065 1.33331H5.37984C3.3265 1.33331 1.6665 2.66665 1.6665 5.04665V10.9533C1.6665 13.3333 3.3265 14.6666 5.37984 14.6666H10.6198C12.6732 14.6666 14.3332 13.3333 14.3332 10.9533V7.45998C14.3332 7.09331 14.0332 6.79331 13.6665 6.79331ZM8.31984 10.4666C7.97317 11.58 6.75317 12.18 6.33317 12.18C5.9065 12.18 4.71317 11.6 4.3465 10.4666C4.1065 9.72664 4.37984 8.75998 5.2265 8.48664C5.61317 8.35998 6.0265 8.43331 6.3265 8.66664C6.6265 8.43331 7.03984 8.35998 7.43317 8.48664C8.2865 8.75998 8.55317 9.72664 8.31984 10.4666Z" fill="#FF9C00"/>
<path d="M11.62 5.87335C12.2533 5.88002 13.1333 5.88002 13.8866 5.88002C14.2666 5.88002 14.4666 5.43335 14.2 5.16668C13.24 4.20002 11.52 2.46002 10.5333 1.47335C10.26 1.20002 9.78662 1.38668 9.78662 1.76668V4.09335C9.78662 5.06668 10.6133 5.87335 11.62 5.87335Z" fill="#FF9C00"/>
</svg>
