<svg width="11" height="11" viewBox="0 0 11 11" fill="none" xmlns="http://www.w3.org/2000/svg">
<path d="M8.62595 10.9988C8.54909 10.9991 8.47409 10.9734 8.41165 10.9252L5.47644 8.63612L2.54124 10.9252C2.47853 10.9741 2.40298 11.0003 2.32552 11C2.24805 10.9997 2.17268 10.9729 2.1103 10.9235C2.04793 10.8741 2.00178 10.8046 1.97852 10.7251C1.95527 10.6456 1.95612 10.5602 1.98095 10.4813L3.12572 6.8339L0.158798 4.64526C0.0945324 4.5979 0.0460284 4.52968 0.0203729 4.45056C-0.00528251 4.37144 -0.00674491 4.28557 0.0161995 4.2055C0.0391438 4.12542 0.0852925 4.05533 0.147903 4.00548C0.210513 3.95562 0.286303 3.92861 0.364201 3.92839H4.02448L5.12908 0.271653C5.15288 0.192706 5.19931 0.123894 5.26171 0.0750909C5.32412 0.0262874 5.39929 0 5.47644 0C5.5536 0 5.62877 0.0262874 5.69117 0.0750909C5.75358 0.123894 5.80001 0.192706 5.8238 0.271653L6.92841 3.92962H10.5887C10.6667 3.92958 10.7426 3.9564 10.8054 4.00616C10.8682 4.05592 10.9146 4.126 10.9377 4.20614C10.9607 4.28627 10.9594 4.37226 10.9337 4.4515C10.9081 4.53074 10.8596 4.59907 10.7952 4.64648L7.82716 6.8339L8.97125 10.4803C8.98979 10.5394 8.99501 10.6023 8.98647 10.6639C8.97793 10.7256 8.95588 10.7841 8.92214 10.8348C8.88841 10.8854 8.84395 10.9267 8.79245 10.9553C8.74095 10.9838 8.68388 10.9987 8.62595 10.9988Z" fill="#FFAD30"/>
</svg>
