<svg width="13" height="14" viewBox="0 0 13 14" fill="none" xmlns="http://www.w3.org/2000/svg">
<path d="M12.3159 5.60376H10.3386C8.71695 5.60376 7.39641 4.28321 7.39641 2.66161V0.684219C7.39641 0.307899 7.08851 0 6.71219 0H3.8111C1.70371 0 0 1.36844 0 3.8111V9.87328C0 12.3159 1.70371 13.6844 3.8111 13.6844H9.18907C11.2965 13.6844 13.0002 12.3159 13.0002 9.87328V6.28797C13.0002 5.91165 12.6923 5.60376 12.3159 5.60376ZM6.15797 10.7765H3.4211C3.14057 10.7765 2.90793 10.5438 2.90793 10.2633C2.90793 9.98276 3.14057 9.75012 3.4211 9.75012H6.15797C6.4385 9.75012 6.67114 9.98276 6.67114 10.2633C6.67114 10.5438 6.4385 10.7765 6.15797 10.7765ZM7.52641 8.03958H3.4211C3.14057 8.03958 2.90793 7.80694 2.90793 7.52641C2.90793 7.24588 3.14057 7.01325 3.4211 7.01325H7.52641C7.80694 7.01325 8.03958 7.24588 8.03958 7.52641C8.03958 7.80694 7.80694 8.03958 7.52641 8.03958Z" fill="#FF9C00"/>
</svg>
