<svg width="20" height="20" viewBox="0 0 20 20" fill="none" xmlns="http://www.w3.org/2000/svg">
<path d="M10.0178 19.7988C7.34481 19.7988 4.68217 19.374 2.14387 18.5245C1.20107 18.2137 0.486196 17.5402 0.175383 16.6907C-0.135431 15.8411 -0.0318262 14.8672 0.475835 14.0177L1.79161 11.8213C2.0817 11.3343 2.34071 10.4226 2.34071 9.85278V7.67709C2.34071 3.43967 5.78038 0 10.0178 0C14.2552 0 17.6949 3.43967 17.6949 7.67709V9.85278C17.6949 10.4122 17.9539 11.3343 18.244 11.8213L19.5598 14.0177C20.0467 14.8258 20.1296 15.7893 19.8084 16.6699C19.4872 17.5506 18.7827 18.224 17.8917 18.5245C15.3534 19.3844 12.6908 19.7988 10.0178 19.7988ZM10.0178 1.56443C6.6403 1.56443 3.89478 4.30994 3.89478 7.68745V9.86314C3.89478 10.7023 3.56325 11.9145 3.12811 12.6294L1.81233 14.8362C1.54296 15.2817 1.4808 15.7582 1.6362 16.1726C1.79161 16.5871 2.14387 16.8979 2.64117 17.0636C7.40697 18.6488 12.6494 18.6488 17.4152 17.0636C17.8607 16.9186 18.2025 16.5871 18.358 16.1519C18.5237 15.7168 18.4719 15.2402 18.2336 14.8362L16.9179 12.6397C16.4827 11.9249 16.1512 10.7127 16.1512 9.8735V7.69781C16.1408 4.30994 13.3953 1.56443 10.0178 1.56443Z" fill="#D9D9D9"/>
</svg>
