<svg width="61" height="27" viewBox="0 0 61 27" fill="none" xmlns="http://www.w3.org/2000/svg">
<rect x="0.5" y="0.5" width="60" height="26" rx="9.5" fill="#129575"/>
<rect x="0.5" y="0.5" width="60" height="26" rx="9.5" stroke="white"/>
<path d="M16.875 17H15.874L11.848 10.895V17H10.847V9.322H11.848L15.874 15.416V9.322H16.875V17ZM24.0814 13.755C24.0814 13.9457 24.0704 14.1473 24.0484 14.36H19.2304C19.267 14.954 19.4687 15.4197 19.8354 15.757C20.2094 16.087 20.6604 16.252 21.1884 16.252C21.621 16.252 21.9804 16.153 22.2664 15.955C22.5597 15.7497 22.765 15.4783 22.8824 15.141H23.9604C23.799 15.7203 23.4764 16.1933 22.9924 16.56C22.5084 16.9193 21.907 17.099 21.1884 17.099C20.6164 17.099 20.103 16.9707 19.6484 16.714C19.201 16.4573 18.849 16.0943 18.5924 15.625C18.3357 15.1483 18.2074 14.5983 18.2074 13.975C18.2074 13.3517 18.332 12.8053 18.5814 12.336C18.8307 11.8667 19.179 11.5073 19.6264 11.258C20.081 11.0013 20.6017 10.873 21.1884 10.873C21.7604 10.873 22.2664 10.9977 22.7064 11.247C23.1464 11.4963 23.4837 11.841 23.7184 12.281C23.9604 12.7137 24.0814 13.205 24.0814 13.755ZM23.0474 13.546C23.0474 13.1647 22.963 12.8383 22.7944 12.567C22.6257 12.2883 22.3947 12.0793 22.1014 11.94C21.8154 11.7933 21.4964 11.72 21.1444 11.72C20.6384 11.72 20.2057 11.8813 19.8464 12.204C19.4944 12.5267 19.2927 12.974 19.2414 13.546H23.0474ZM33.4327 10.972L31.5517 17H30.5177L29.0657 12.215L27.6137 17H26.5797L24.6877 10.972H25.7107L27.0967 16.032L28.5927 10.972H29.6157L31.0787 16.043L32.4427 10.972H33.4327ZM39.9261 13.755C39.9261 13.9457 39.9151 14.1473 39.8931 14.36H35.0751C35.1118 14.954 35.3134 15.4197 35.6801 15.757C36.0541 16.087 36.5051 16.252 37.0331 16.252C37.4658 16.252 37.8251 16.153 38.1111 15.955C38.4044 15.7497 38.6098 15.4783 38.7271 15.141H39.8051C39.6438 15.7203 39.3211 16.1933 38.8371 16.56C38.3531 16.9193 37.7518 17.099 37.0331 17.099C36.4611 17.099 35.9478 16.9707 35.4931 16.714C35.0458 16.4573 34.6938 16.0943 34.4371 15.625C34.1804 15.1483 34.0521 14.5983 34.0521 13.975C34.0521 13.3517 34.1768 12.8053 34.4261 12.336C34.6754 11.8667 35.0238 11.5073 35.4711 11.258C35.9258 11.0013 36.4464 10.873 37.0331 10.873C37.6051 10.873 38.1111 10.9977 38.5511 11.247C38.9911 11.4963 39.3284 11.841 39.5631 12.281C39.8051 12.7137 39.9261 13.205 39.9261 13.755ZM38.8921 13.546C38.8921 13.1647 38.8078 12.8383 38.6391 12.567C38.4704 12.2883 38.2394 12.0793 37.9461 11.94C37.6601 11.7933 37.3411 11.72 36.9891 11.72C36.4831 11.72 36.0504 11.8813 35.6911 12.204C35.3391 12.5267 35.1374 12.974 35.0861 13.546H38.8921ZM43.3814 17.099C42.9194 17.099 42.5051 17.022 42.1384 16.868C41.7717 16.7067 41.4821 16.4867 41.2694 16.208C41.0567 15.922 40.9394 15.5957 40.9174 15.229H41.9514C41.9807 15.5297 42.1201 15.7753 42.3694 15.966C42.6261 16.1567 42.9597 16.252 43.3704 16.252C43.7517 16.252 44.0524 16.1677 44.2724 15.999C44.4924 15.8303 44.6024 15.6177 44.6024 15.361C44.6024 15.097 44.4851 14.9027 44.2504 14.778C44.0157 14.646 43.6527 14.5177 43.1614 14.393C42.7141 14.2757 42.3474 14.1583 42.0614 14.041C41.7827 13.9163 41.5407 13.7367 41.3354 13.502C41.1374 13.26 41.0384 12.9447 41.0384 12.556C41.0384 12.248 41.1301 11.9657 41.3134 11.709C41.4967 11.4523 41.7571 11.2507 42.0944 11.104C42.4317 10.95 42.8167 10.873 43.2494 10.873C43.9167 10.873 44.4557 11.0417 44.8664 11.379C45.2771 11.7163 45.4971 12.1783 45.5264 12.765H44.5254C44.5034 12.4497 44.3751 12.1967 44.1404 12.006C43.9131 11.8153 43.6051 11.72 43.2164 11.72C42.8571 11.72 42.5711 11.797 42.3584 11.951C42.1457 12.105 42.0394 12.3067 42.0394 12.556C42.0394 12.754 42.1017 12.919 42.2264 13.051C42.3584 13.1757 42.5197 13.2783 42.7104 13.359C42.9084 13.4323 43.1797 13.5167 43.5244 13.612C43.9571 13.7293 44.3091 13.8467 44.5804 13.964C44.8517 14.074 45.0827 14.2427 45.2734 14.47C45.4714 14.6973 45.5741 14.9943 45.5814 15.361C45.5814 15.691 45.4897 15.988 45.3064 16.252C45.1231 16.516 44.8627 16.725 44.5254 16.879C44.1954 17.0257 43.8141 17.099 43.3814 17.099ZM48.2155 11.797V15.35C48.2155 15.6433 48.2778 15.8523 48.4025 15.977C48.5271 16.0943 48.7435 16.153 49.0515 16.153H49.7885V17H48.8865C48.3291 17 47.9111 16.8717 47.6325 16.615C47.3538 16.3583 47.2145 15.9367 47.2145 15.35V11.797H46.4335V10.972H47.2145V9.454H48.2155V10.972H49.7885V11.797H48.2155Z" fill="white"/>
</svg>
