<svg width="22" height="21" viewBox="0 0 22 21" fill="none" xmlns="http://www.w3.org/2000/svg">
<path d="M14.2714 20.8323C14.0567 20.8323 13.842 20.8016 13.6273 20.7505C12.9935 20.5767 12.4619 20.178 12.1245 19.6157L12.0018 19.4113C11.3987 18.3685 10.5706 18.3685 9.96746 19.4113L9.85501 19.6055C9.51765 20.178 8.98605 20.5869 8.35222 20.7505C7.70817 20.9243 7.04367 20.8323 6.48141 20.4949L4.72304 19.4829C4.09944 19.125 3.64963 18.5423 3.45539 17.8369C3.27137 17.1315 3.36338 16.4057 3.72119 15.7821C4.01765 15.2607 4.09944 14.7905 3.92565 14.494C3.75186 14.1975 3.31226 14.0237 2.70911 14.0237C1.21654 14.0237 0 12.8072 0 11.3146V9.51539C0 8.02282 1.21654 6.80628 2.70911 6.80628C3.31226 6.80628 3.75186 6.63249 3.92565 6.33602C4.09944 6.03955 4.02788 5.56929 3.72119 5.04792C3.36338 4.42431 3.27137 3.68825 3.45539 2.99309C3.6394 2.2877 4.08922 1.70498 4.72304 1.34718L6.49163 0.335097C7.64683 -0.349846 9.17007 0.0488522 9.86523 1.2245L9.98791 1.42896C10.5911 2.47171 11.4191 2.47171 12.0223 1.42896L12.1347 1.23472C12.8299 0.0488522 14.3531 -0.349846 15.5186 0.34532L17.2769 1.3574C17.9005 1.71521 18.3504 2.29792 18.5446 3.00331C18.7286 3.7087 18.6366 4.43454 18.2788 5.05814C17.9823 5.57952 17.9005 6.04978 18.0743 6.34624C18.2481 6.64271 18.6877 6.8165 19.2909 6.8165C20.7834 6.8165 22 8.03305 22 9.52561V11.3249C22 12.8174 20.7834 14.034 19.2909 14.034C18.6877 14.034 18.2481 14.2078 18.0743 14.5042C17.9005 14.8007 17.9721 15.271 18.2788 15.7923C18.6366 16.4159 18.7388 17.152 18.5446 17.8472C18.3606 18.5526 17.9108 19.1353 17.2769 19.4931L15.5084 20.5052C15.1199 20.7198 14.7007 20.8323 14.2714 20.8323ZM10.9898 17.0498C11.8996 17.0498 12.7481 17.6223 13.3308 18.6343L13.4433 18.8286C13.566 19.0433 13.7704 19.1966 14.0158 19.2579C14.2611 19.3193 14.5065 19.2886 14.711 19.1659L16.4795 18.1436C16.7453 17.9903 16.9498 17.7347 17.0316 17.428C17.1134 17.1213 17.0725 16.8044 16.9191 16.5386C16.3364 15.5368 16.2649 14.5042 16.7147 13.7171C17.1645 12.9299 18.0948 12.4801 19.2602 12.4801C19.9145 12.4801 20.4359 11.9587 20.4359 11.3044V9.50516C20.4359 8.86111 19.9145 8.32951 19.2602 8.32951C18.0948 8.32951 17.1645 7.8797 16.7147 7.09253C16.2649 6.30535 16.3364 5.27283 16.9191 4.27097C17.0725 4.00517 17.1134 3.68825 17.0316 3.38156C16.9498 3.07487 16.7556 2.82952 16.4898 2.66595L14.7212 1.65387C14.2816 1.38807 13.6989 1.54142 13.4331 1.99123L13.3206 2.18547C12.7379 3.19755 11.8894 3.77004 10.9795 3.77004C10.0697 3.77004 9.22118 3.19755 8.63847 2.18547L8.52601 1.98101C8.27044 1.55164 7.69795 1.39829 7.25836 1.65387L5.48977 2.67617C5.22397 2.82952 5.01951 3.08509 4.93773 3.39179C4.85594 3.69848 4.89684 4.01539 5.05018 4.28119C5.63289 5.28305 5.70446 6.31558 5.25464 7.10275C4.80483 7.88992 3.87453 8.33974 2.70911 8.33974C2.05483 8.33974 1.53346 8.86111 1.53346 9.51539V11.3146C1.53346 11.9587 2.05483 12.4903 2.70911 12.4903C3.87453 12.4903 4.80483 12.9401 5.25464 13.7273C5.70446 14.5145 5.63289 15.547 5.05018 16.5488C4.89684 16.8146 4.85594 17.1316 4.93773 17.4382C5.01951 17.7449 5.21375 17.9903 5.47955 18.1539L7.24813 19.1659C7.46282 19.2988 7.71839 19.3295 7.95352 19.2682C8.19888 19.2068 8.40334 19.0433 8.53624 18.8286L8.64869 18.6343C9.2314 17.6325 10.0799 17.0498 10.9898 17.0498Z" fill="#797979"/>
</svg>
