<svg width="50" height="28" viewBox="0 0 50 28" fill="none" xmlns="http://www.w3.org/2000/svg">
<rect x="0.5" y="0.5" width="49" height="27" rx="9.5" fill="white"/>
<rect x="0.5" y="0.5" width="49" height="27" rx="9.5" stroke="#71B1A1"/>
<path d="M11.353 15.795C12.057 15.1863 12.6107 14.6877 13.014 14.299C13.4247 13.903 13.7657 13.4923 14.037 13.067C14.3083 12.6417 14.444 12.2163 14.444 11.791C14.444 11.351 14.3377 11.0063 14.125 10.757C13.9197 10.5077 13.5933 10.383 13.146 10.383C12.7133 10.383 12.376 10.5223 12.134 10.801C11.8993 11.0723 11.7747 11.439 11.76 11.901H10.55C10.572 11.065 10.8213 10.427 11.298 9.987C11.782 9.53967 12.3943 9.316 13.135 9.316C13.9343 9.316 14.5577 9.536 15.005 9.976C15.4597 10.416 15.687 11.0027 15.687 11.736C15.687 12.264 15.5513 12.7737 15.28 13.265C15.016 13.749 14.697 14.1853 14.323 14.574C13.9563 14.9553 13.487 15.399 12.915 15.905L12.42 16.345H15.907V17.39H10.561V16.477L11.353 15.795Z" fill="#71B1A1"/>
<path d="M30.5245 6.46353C30.6741 6.00287 31.3259 6.00287 31.4755 6.46353L32.9084 10.8734C32.9753 11.0794 33.1673 11.2188 33.3839 11.2188H38.0207C38.505 11.2188 38.7064 11.8387 38.3146 12.1234L34.5633 14.8488C34.3881 14.9761 34.3148 15.2018 34.3817 15.4078L35.8145 19.8176C35.9642 20.2783 35.437 20.6613 35.0451 20.3766L31.2939 17.6512C31.1186 17.5239 30.8814 17.5239 30.7061 17.6512L26.9549 20.3766C26.563 20.6613 26.0358 20.2783 26.1855 19.8176L27.6183 15.4078C27.6852 15.2018 27.6119 14.9761 27.4367 14.8488L23.6854 12.1234C23.2936 11.8387 23.495 11.2188 23.9793 11.2188H28.6161C28.8327 11.2188 29.0247 11.0794 29.0916 10.8734L30.5245 6.46353Z" fill="#71B1A1"/>
</svg>
