<svg width="17" height="17" viewBox="0 0 17 17" fill="none" xmlns="http://www.w3.org/2000/svg">
<path d="M8.02294 0.346598C8.1731 -0.115544 8.8269 -0.115544 8.97706 0.346598L10.6398 5.46387C10.7069 5.67055 10.8995 5.81048 11.1168 5.81048H16.4975C16.9834 5.81048 17.1854 6.43229 16.7923 6.71791L12.4393 9.88056C12.2635 10.0083 12.1899 10.2347 12.2571 10.4414L13.9198 15.5587C14.0699 16.0208 13.541 16.4051 13.1479 16.1195L8.79484 12.9568C8.61903 12.8291 8.38097 12.8291 8.20516 12.9568L3.85214 16.1195C3.45902 16.4051 2.93008 16.0208 3.08024 15.5587L4.74294 10.4414C4.8101 10.2347 4.73653 10.0083 4.56072 9.88056L0.207708 6.71791C-0.185413 6.43229 0.0166249 5.81048 0.50255 5.81048H5.88317C6.10048 5.81048 6.29308 5.67055 6.36023 5.46387L8.02294 0.346598Z" fill="#121212"/>
</svg>
