<svg width="29" height="14" viewBox="0 0 29 14" fill="none" xmlns="http://www.w3.org/2000/svg">
<rect width="29" height="14" rx="7" fill="#129575"/>
<path d="M5 10.56H13V2.56H5V10.56Z" fill="#797979"/>
<path d="M18.48 5.672C18.5173 5.18133 18.7067 4.79733 19.048 4.52C19.3893 4.24267 19.832 4.104 20.376 4.104C20.7387 4.104 21.0507 4.17067 21.312 4.304C21.5787 4.432 21.7787 4.608 21.912 4.832C22.0507 5.056 22.12 5.30933 22.12 5.592C22.12 5.92267 22.024 6.208 21.832 6.448C21.6453 6.688 21.4 6.84267 21.096 6.912V6.952C21.4427 7.03733 21.7173 7.20533 21.92 7.456C22.1227 7.70667 22.224 8.03467 22.224 8.44C22.224 8.744 22.1547 9.01867 22.016 9.264C21.8773 9.504 21.6693 9.69333 21.392 9.832C21.1147 9.97067 20.7813 10.04 20.392 10.04C19.8267 10.04 19.3627 9.89333 19 9.6C18.6373 9.30133 18.4347 8.88 18.392 8.336H19.096C19.1333 8.656 19.264 8.91733 19.488 9.12C19.712 9.32267 20.0107 9.424 20.384 9.424C20.7573 9.424 21.04 9.328 21.232 9.136C21.4293 8.93867 21.528 8.68533 21.528 8.376C21.528 7.976 21.3947 7.688 21.128 7.512C20.8613 7.336 20.4587 7.248 19.92 7.248H19.736V6.64H19.928C20.4187 6.63467 20.7893 6.55467 21.04 6.4C21.2907 6.24 21.416 5.99467 21.416 5.664C21.416 5.38133 21.3227 5.15467 21.136 4.984C20.9547 4.81333 20.6933 4.728 20.352 4.728C20.0213 4.728 19.7547 4.81333 19.552 4.984C19.3493 5.15467 19.2293 5.384 19.192 5.672H18.48Z" fill="white"/>
</svg>
